<?xml version="1.0" encoding="utf-8"?>
<!-- Generator: Adobe Illustrator 18.1.0, SVG Export Plug-In . SVG Version: 6.00 Build 0)  -->
<!DOCTYPE svg PUBLIC "-//W3C//DTD SVG 1.1//EN" "http://www.w3.org/Graphics/SVG/1.1/DTD/svg11.dtd">
<svg version="1.1" id="Warstwa_1" xmlns="http://www.w3.org/2000/svg" xmlns:xlink="http://www.w3.org/1999/xlink" x="0px" y="0px"
	 viewBox="0 0 30 30" enable-background="new 0 0 30 30" xml:space="preserve">
<g id="flash">
	<path fill="#FFFFFF" d="M11.7,25l-0.1-0.1c-0.1-0.2-0.1-0.4-0.1-0.5c0.1-0.3,2.7-7.7,2.7-7.7H9.1c-0.2,0-0.4-0.1-0.5-0.3
		c-0.1-0.2-0.1-0.5,0.1-0.7c3-3.4,8.8-9.9,9-10.1c0.1-0.2,0.3-0.3,0.4-0.3h0.2l0.1,0.1c0.1,0.1,0.1,0.2,0.1,0.5
		c-0.1,0.3-2.5,7.2-2.6,7.5l5,0c0.2,0,0.4,0.1,0.5,0.3c0.1,0.2,0.1,0.4-0.1,0.6c0,0-8.9,10.3-9,10.5C12.2,24.9,12,25,11.9,25H11.7z"
		/>
</g>
</svg>
