<?xml version="1.0" encoding="utf-8"?>
<!-- Generator: Adobe Illustrator 17.1.0, SVG Export Plug-In . SVG Version: 6.00 Build 0)  -->
<!DOCTYPE svg PUBLIC "-//W3C//DTD SVG 1.1//EN" "http://www.w3.org/Graphics/SVG/1.1/DTD/svg11.dtd">
<svg version="1.1" id="Warstwa_1" xmlns="http://www.w3.org/2000/svg" xmlns:xlink="http://www.w3.org/1999/xlink" x="0px" y="0px"
	 viewBox="0 0 852 116.8" enable-background="new 0 0 852 116.8" xml:space="preserve">
<g>
	<path fill="#F2F2F2" d="M49,3.5H0v110h11v-37h38c11.2,0,20.6-4.2,27.3-11.7c5.9-6.6,9.1-15.6,9.1-25.2c0-9.5-3.2-18.3-9.1-24.9
		C69.7,7.3,60.2,3.5,49,3.5z M68.6,58.2c-4.7,5.5-11.5,8.3-19.6,8.3H11v-53h38C67,13.5,75.1,27.1,75.1,40
		C75.1,47.1,72.8,53.4,68.6,58.2z"/>
	<path fill="#F2F2F2" d="M152.9,1.3c-17.4,0-31.8,6-41.8,17.3c-9,10.1-13.9,24.2-13.9,39.5c0,27.6,17.4,57.3,55.7,57.3
		c17.2,0,31.7-6.1,41.7-17.6c9-10.2,13.9-24.2,14-39.3c0.1-16.6-5.6-31.5-15.9-41.9C182.9,6.6,169.1,1.3,152.9,1.3z M152.9,105.7
		c-31.1,0-45.4-24.6-45.5-47.4c-0.1-14,4.5-26.4,13-34.9c8-8.1,19.3-12.3,32.5-12.3c31.6,0,45.7,23.7,45.7,47.2
		C198.6,81.1,184.3,105.7,152.9,105.7z"/>
	<polygon fill="#F2F2F2" points="237,3.5 227,3.5 227,113.5 298,113.5 298,103.5 237,103.5 	"/>
	<polygon fill="#F2F2F2" points="378,3.5 367,3.5 330.6,59.7 294.4,3.5 283,3.5 283,4.5 325,69.4 325,113.5 336,113.5 336,69.4 
		378.1,4.7 378,4.5 	"/>
	<path fill="#F2F2F2" d="M485.2,11.2c12.6,0,24.4,4.8,33.1,13.5l0.7,0.7l7.3-6.3l-0.8-0.8c-10.7-10.7-25-16.6-40.3-16.6
		c-16.7,0-30.9,5.4-41.1,15.7c-10.3,10.5-15.9,25.2-15.8,41.4c0.1,27.8,17.8,55.9,56.8,55.9c15.3,0,29.6-5.9,40.3-16.6l0.7-0.7
		l-7-6.6l-0.7,0.7c-8.7,8.6-20.9,13.5-33.3,13.5c-14.4,0-26.4-4.8-34.8-13.9c-7.6-8.2-11.8-19.8-12-32.6c-0.1-13.8,4.5-26.1,13-34.6
		C459.8,15.6,471.4,11.2,485.2,11.2z"/>
	<path fill="#F2F2F2" d="M594.4,1.3c-17.4,0-31.8,6-41.8,17.3c-9,10.1-13.9,24.2-13.9,39.5c0,27.6,17.4,57.3,55.7,57.3
		c17.2,0,31.7-6.1,41.7-17.6c9-10.2,13.9-24.2,14-39.3c0.1-16.6-5.6-31.5-15.9-41.9C624.4,6.6,610.6,1.3,594.4,1.3z M594.4,105.7
		c-31.1,0-45.4-24.6-45.5-47.4c-0.1-14,4.5-26.4,13-34.9c8-8.1,19.3-12.3,32.5-12.3c31.6,0,45.7,23.7,45.7,47.2
		C640.1,81.1,625.8,105.7,594.4,105.7z"/>
	<polygon fill="#F2F2F2" points="745,91 673.6,3.6 673.2,3.5 668,3.5 668,113.5 679,113.5 679,25.7 750.2,113.5 755,113.5 755,3.5 
		745,3.5 	"/>
	<polygon fill="#F2F2F2" points="852,13.5 852,3.5 777,3.5 777,113.5 788,113.5 788,64.5 850,64.5 850,54.5 788,54.5 788,13.5 	"/>
</g>
</svg>
