<?xml version="1.0" encoding="utf-8"?>
<!-- Generator: Adobe Illustrator 18.0.0, SVG Export Plug-In . SVG Version: 6.00 Build 0)  -->
<!DOCTYPE svg PUBLIC "-//W3C//DTD SVG 1.1//EN" "http://www.w3.org/Graphics/SVG/1.1/DTD/svg11.dtd">
<svg version="1.1" id="Warstwa_1" xmlns="http://www.w3.org/2000/svg" xmlns:xlink="http://www.w3.org/1999/xlink" x="0px" y="0px"
	 viewBox="0 0 2000 800" enable-background="new 0 0 2000 800" xml:space="preserve">
<g>
	<polygon fill="none" stroke="#0F73A2" stroke-width="0.5" stroke-linejoin="bevel" stroke-miterlimit="10" points="1119.9,91.9 
		1141.2,261.8 909.4,223.8 	"/>
	<polygon fill="none" stroke="#0F73A2" stroke-width="0.5" stroke-linejoin="bevel" stroke-miterlimit="10" points="1141.2,261.8 
		910.5,223.8 1141.2,365 	"/>
	<polygon fill="none" stroke="#0F73A2" stroke-width="0.5" stroke-linejoin="bevel" stroke-miterlimit="10" points="1290.4,368.7 
		1141.2,261.8 1141.2,365 	"/>
	<polygon fill="none" stroke="#0F73A2" stroke-width="0.5" stroke-linejoin="bevel" stroke-miterlimit="10" points="272,143.6 
		156.6,285.5 334.5,292.2 	"/>
	<polygon fill="none" stroke="#0F73A2" stroke-width="0.5" stroke-linejoin="bevel" stroke-miterlimit="10" points="772.3,66.8 
		667.1,129.6 778,-96.4 	"/>
	<polygon fill="none" stroke="#0F73A2" stroke-width="0.5" stroke-linejoin="bevel" stroke-miterlimit="10" points="1285.2,642.2 
		1456.3,731.9 1424.6,618.4 	"/>
	<polygon fill="none" stroke="#0F73A2" stroke-width="0.5" stroke-linejoin="bevel" stroke-miterlimit="10" points="813.5,214.3 
		861.9,271.1 909.4,223.8 	"/>
	<polygon fill="none" stroke="#0F73A2" stroke-width="0.5" stroke-linejoin="bevel" stroke-miterlimit="10" points="1051,509.3 
		956.7,456.3 1141.2,365 	"/>
	<polygon fill="none" stroke="#0F73A2" stroke-width="0.5" stroke-linejoin="bevel" stroke-miterlimit="10" points="1051,509.7 
		1248.5,509.7 1141.2,365.3 	"/>
	<polygon fill="none" stroke="#0F73A2" stroke-width="0.5" stroke-linejoin="bevel" stroke-miterlimit="10" points="1290.4,368.7 
		1248.5,509.3 1141.2,365 	"/>
	<polygon fill="none" stroke="#0F73A2" stroke-width="0.5" stroke-linejoin="bevel" stroke-miterlimit="10" points="1290.4,368.7 
		1248.5,509.3 1449.8,313.6 	"/>
	<polygon fill="none" stroke="#0F73A2" stroke-width="0.5" stroke-linejoin="bevel" stroke-miterlimit="10" points="1410.6,493.4 
		1248.5,509.3 1449.8,313.6 	"/>
	<polygon fill="none" stroke="#0F73A2" stroke-width="0.5" stroke-linejoin="bevel" stroke-miterlimit="10" points="1410.6,493.4 
		1248.5,509.3 1358.9,561.6 	"/>
	<polygon fill="none" stroke="#0F73A2" stroke-width="0.5" stroke-linejoin="bevel" stroke-miterlimit="10" points="1285.2,642.2 
		1248.5,509.3 1358.9,561.6 	"/>
	<polygon fill="none" stroke="#0F73A2" stroke-width="0.5" stroke-linejoin="bevel" stroke-miterlimit="10" points="1410.6,493.4 
		1510.4,603.8 1358.9,561.6 	"/>
	<polygon fill="none" stroke="#0F73A2" stroke-width="0.5" stroke-linejoin="bevel" stroke-miterlimit="10" points="1285.2,642.2 
		1510.4,603.8 1358.9,561.6 	"/>
	<polygon fill="none" stroke="#0F73A2" stroke-width="0.5" stroke-linejoin="bevel" stroke-miterlimit="10" points="1285.2,642.2 
		1456.3,731.9 1186.9,733.4 	"/>
	<polygon fill="none" stroke="#0F73A2" stroke-width="0.5" stroke-linejoin="bevel" stroke-miterlimit="10" points="1054.6,919.4 
		1456.3,731.9 1186.9,733.4 	"/>
	<polygon fill="none" stroke="#0F73A2" stroke-width="0.5" stroke-linejoin="bevel" stroke-miterlimit="10" points="1054.6,919.4 
		1456.3,731.9 1384.5,914.5 	"/>
	<polygon fill="none" stroke="#0F73A2" stroke-width="0.5" stroke-linejoin="bevel" stroke-miterlimit="10" points="1494.4,914.9 
		1456.3,731.9 1384.5,914.5 	"/>
	<polygon fill="none" stroke="#0F73A2" stroke-width="0.5" stroke-linejoin="bevel" stroke-miterlimit="10" points="1494.4,914.9 
		1456.3,731.9 1665.9,849.3 	"/>
	<polygon fill="none" stroke="#0F73A2" stroke-width="0.5" stroke-linejoin="bevel" stroke-miterlimit="10" points="1636.1,713.3 
		1456.3,731.9 1665.9,849.3 	"/>
	<polygon fill="none" stroke="#0F73A2" stroke-width="0.5" stroke-linejoin="bevel" stroke-miterlimit="10" points="1636.1,713.3 
		1734.8,698.3 1665.9,849.3 	"/>
	<polygon fill="none" stroke="#0F73A2" stroke-width="0.5" stroke-linejoin="bevel" stroke-miterlimit="10" points="1996.8,914.5 
		1734.8,698.3 1665.9,849.3 	"/>
	<polygon fill="none" stroke="#0F73A2" stroke-width="0.5" stroke-linejoin="bevel" stroke-miterlimit="10" points="1510.4,603.8 
		1456.3,731.9 1424.6,618.4 	"/>
	<polygon fill="none" stroke="#0F73A2" stroke-width="0.5" stroke-linejoin="bevel" stroke-miterlimit="10" points="1410.6,493.4 
		1510.4,603.8 1542.9,424.5 	"/>
	<polygon fill="none" stroke="#0F73A2" stroke-width="0.5" stroke-linejoin="bevel" stroke-miterlimit="10" points="1623.1,504.6 
		1510.4,603.8 1542.9,424.5 	"/>
	<polygon fill="none" stroke="#0F73A2" stroke-width="0.5" stroke-linejoin="bevel" stroke-miterlimit="10" points="1623.1,504.6 
		1719.9,292.2 1542.9,424.5 	"/>
	<polygon fill="none" stroke="#0F73A2" stroke-width="0.5" stroke-linejoin="bevel" stroke-miterlimit="10" points="1623.1,504.6 
		1719.9,292.2 1734.8,415.6 	"/>
	<polygon fill="none" stroke="#0F73A2" stroke-width="0.5" stroke-linejoin="bevel" stroke-miterlimit="10" points="1623.1,504.6 
		1730.2,577.3 1734.8,415.6 	"/>
	<polygon fill="none" stroke="#0F73A2" stroke-width="0.5" stroke-linejoin="bevel" stroke-miterlimit="10" points="1828.1,451.6 
		1730.2,577.3 1734.8,415.6 	"/>
	<polygon fill="none" stroke="#0F73A2" stroke-width="0.5" stroke-linejoin="bevel" stroke-miterlimit="10" points="1827.9,283.9 
		1827.9,451.6 1734.7,415.6 	"/>
	<polygon fill="none" stroke="#0F73A2" stroke-width="0.5" stroke-linejoin="bevel" stroke-miterlimit="10" points="1623.1,504.6 
		1730.2,577.3 1510.4,603.8 	"/>
	<polygon fill="none" stroke="#0F73A2" stroke-width="0.5" stroke-linejoin="bevel" stroke-miterlimit="10" points="1456.3,731.9 
		1730.2,577.3 1510.4,603.8 	"/>
	<polygon fill="none" stroke="#0F73A2" stroke-width="0.5" stroke-linejoin="bevel" stroke-miterlimit="10" points="1636.1,713.3 
		1730.2,577.3 1734.8,698.3 	"/>
	<polygon fill="none" stroke="#0F73A2" stroke-width="0.5" stroke-linejoin="bevel" stroke-miterlimit="10" points="1996.8,584.8 
		1730.2,577.3 1734.8,698.3 	"/>
	<polygon fill="none" stroke="#0F73A2" stroke-width="0.5" stroke-linejoin="bevel" stroke-miterlimit="10" points="1993.3,586.5 
		1993.3,667.9 1733.5,698.3 	"/>
	<polygon fill="none" stroke="#0F73A2" stroke-width="0.5" stroke-linejoin="bevel" stroke-miterlimit="10" points="1993.3,911.3 
		1993.3,667.9 1733.5,698.3 	"/>
	<polygon fill="none" stroke="#0F73A2" stroke-width="0.5" stroke-linejoin="bevel" stroke-miterlimit="10" points="1996.8,584.8 
		1730.2,577.3 1846.7,504.6 	"/>
	<polygon fill="none" stroke="#0F73A2" stroke-width="0.5" stroke-linejoin="bevel" stroke-miterlimit="10" points="1993.3,583.2 
		1993.3,497 1845.3,504.6 	"/>
	<polygon fill="none" stroke="#0F73A2" stroke-width="0.5" stroke-linejoin="bevel" stroke-miterlimit="10" points="1828.1,451.6 
		1730.2,577.3 1846.7,504.6 	"/>
	<polygon fill="none" stroke="#0F73A2" stroke-width="0.5" stroke-linejoin="bevel" stroke-miterlimit="10" points="1828.1,451.6 
		1996.8,496.5 1846.7,504.6 	"/>
	<polygon fill="none" stroke="#0F73A2" stroke-width="0.5" stroke-linejoin="bevel" stroke-miterlimit="10" points="1827.9,451.6 
		1996.6,496.5 1827.9,283.9 	"/>
	<polygon fill="none" stroke="#0F73A2" stroke-width="0.5" stroke-linejoin="bevel" stroke-miterlimit="10" points="1993.3,169.6 
		1993.3,493.4 1826.9,283.9 	"/>
	<polygon fill="none" stroke="#0F73A2" stroke-width="0.5" stroke-linejoin="bevel" stroke-miterlimit="10" points="1456.3,731.9 
		1730.2,577.3 1636.1,713.3 	"/>
	<polygon fill="none" stroke="#0F73A2" stroke-width="0.5" stroke-linejoin="bevel" stroke-miterlimit="10" points="1828.1,283.9 
		1719.9,292.2 1734.8,415.6 	"/>
	<polygon fill="none" stroke="#0F73A2" stroke-width="0.5" stroke-linejoin="bevel" stroke-miterlimit="10" points="1828.1,283.9 
		1719.9,292.2 1804.5,121.8 	"/>
	<polygon fill="none" stroke="#0F73A2" stroke-width="0.5" stroke-linejoin="bevel" stroke-miterlimit="10" points="1828.1,283.9 
		1996.8,164.7 1804.5,121.8 	"/>
	<polygon fill="none" stroke="#0F73A2" stroke-width="0.5" stroke-linejoin="bevel" stroke-miterlimit="10" points="1994.7,-33.9 
		1993.7,162.6 1804.5,121.8 	"/>
	<polygon fill="none" stroke="#0F73A2" stroke-width="0.5" stroke-linejoin="bevel" stroke-miterlimit="10" points="1552.2,252.1 
		1719.9,292.2 1542.9,424.5 	"/>
	<polygon fill="none" stroke="#0F73A2" stroke-width="0.5" stroke-linejoin="bevel" stroke-miterlimit="10" points="1410.6,493.4 
		1449.8,313.6 1542.9,424.5 	"/>
	<polygon fill="none" stroke="#0F73A2" stroke-width="0.5" stroke-linejoin="bevel" stroke-miterlimit="10" points="1552.2,252.1 
		1449.8,313.6 1542.9,424.5 	"/>
	<polygon fill="none" stroke="#0F73A2" stroke-width="0.5" stroke-linejoin="bevel" stroke-miterlimit="10" points="1186.9,733.4 
		1248.5,509.3 1111.6,629.5 	"/>
	<polygon fill="none" stroke="#0F73A2" stroke-width="0.5" stroke-linejoin="bevel" stroke-miterlimit="10" points="1186.9,733.4 
		889.8,820.1 1111.6,629.5 	"/>
	<polygon fill="none" stroke="#0F73A2" stroke-width="0.5" stroke-linejoin="bevel" stroke-miterlimit="10" points="1186.9,733.4 
		889.8,820.1 1054.6,919.4 	"/>
	<polygon fill="none" stroke="#0F73A2" stroke-width="0.5" stroke-linejoin="bevel" stroke-miterlimit="10" points="923.4,986.9 
		889.8,820.1 1054.6,919.4 	"/>
	<polygon fill="none" stroke="#0F73A2" stroke-width="0.5" stroke-linejoin="bevel" stroke-miterlimit="10" points="923.4,986.9 
		889.8,820.1 750,872.7 	"/>
	<polygon fill="none" stroke="#0F73A2" stroke-width="0.5" stroke-linejoin="bevel" stroke-miterlimit="10" points="693.2,773.9 
		889.8,820.1 750,872.7 	"/>
	<polygon fill="none" stroke="#0F73A2" stroke-width="0.5" stroke-linejoin="bevel" stroke-miterlimit="10" points="693.2,773.9 
		620.6,817.2 750,872.7 	"/>
	<polygon fill="none" stroke="#0F73A2" stroke-width="0.5" stroke-linejoin="bevel" stroke-miterlimit="10" points="693.2,773.9 
		620.6,817.2 601.5,713.3 	"/>
	<polygon fill="none" stroke="#0F73A2" stroke-width="0.5" stroke-linejoin="bevel" stroke-miterlimit="10" points="750,872.7 
		620.6,817.2 546,951.8 	"/>
	<polygon fill="none" stroke="#0F73A2" stroke-width="0.5" stroke-linejoin="bevel" stroke-miterlimit="10" points="434.6,783.3 
		620.6,817.2 601.5,713.3 	"/>
	<polygon fill="none" stroke="#0F73A2" stroke-width="0.5" stroke-linejoin="bevel" stroke-miterlimit="10" points="434.6,783.3 
		620.6,817.2 546,951.8 	"/>
	<polygon fill="none" stroke="#0F73A2" stroke-width="0.5" stroke-linejoin="bevel" stroke-miterlimit="10" points="434.6,783.3 
		423,849.3 546,951.8 	"/>
	<polygon fill="none" stroke="#0F73A2" stroke-width="0.5" stroke-linejoin="bevel" stroke-miterlimit="10" points="693.2,773.9 
		889.8,820.1 747.7,675.1 	"/>
	<polygon fill="none" stroke="#0F73A2" stroke-width="0.5" stroke-linejoin="bevel" stroke-miterlimit="10" points="1290.4,368.7 
		1424.6,219.9 1449.8,313.6 	"/>
	<polygon fill="none" stroke="#0F73A2" stroke-width="0.5" stroke-linejoin="bevel" stroke-miterlimit="10" points="1552.2,252.1 
		1424.6,219.9 1449.8,313.6 	"/>
	<polygon fill="none" stroke="#0F73A2" stroke-width="0.5" stroke-linejoin="bevel" stroke-miterlimit="10" points="1552.2,252.1 
		1424.6,219.9 1571.8,159.4 	"/>
	<polygon fill="none" stroke="#0F73A2" stroke-width="0.5" stroke-linejoin="bevel" stroke-miterlimit="10" points="1552.2,252.1 
		1719.9,292.2 1571.8,159.4 	"/>
	<polygon fill="none" stroke="#0F73A2" stroke-width="0.5" stroke-linejoin="bevel" stroke-miterlimit="10" points="1804.5,121.8 
		1719.9,292.2 1571.8,159.4 	"/>
	<polygon fill="none" stroke="#0F73A2" stroke-width="0.5" stroke-linejoin="bevel" stroke-miterlimit="10" points="1804.5,121.8 
		1751.3,54.7 1571.8,159.4 	"/>
	<polygon fill="none" stroke="#0F73A2" stroke-width="0.5" stroke-linejoin="bevel" stroke-miterlimit="10" points="1804.5,121.8 
		1751.3,54.7 1996.8,-35.7 	"/>
	<polygon fill="none" stroke="#0F73A2" stroke-width="0.5" stroke-linejoin="bevel" stroke-miterlimit="10" points="1708.7,-66.2 
		1751.3,54.7 1996.8,-35.7 	"/>
	<polygon fill="none" stroke="#0F73A2" stroke-width="0.5" stroke-linejoin="bevel" stroke-miterlimit="10" points="1708.7,-66.2 
		1751.3,54.7 1636.1,30.5 	"/>
	<polygon fill="none" stroke="#0F73A2" stroke-width="0.5" stroke-linejoin="bevel" stroke-miterlimit="10" points="1708.7,-66.2 
		1636.9,-63.7 1636.1,30.5 	"/>
	<polygon fill="none" stroke="#0F73A2" stroke-width="0.5" stroke-linejoin="bevel" stroke-miterlimit="10" points="1636.1,30.5 
		1751.3,54.7 1571.8,159.4 	"/>
	<polygon fill="none" stroke="#0F73A2" stroke-width="0.5" stroke-linejoin="bevel" stroke-miterlimit="10" points="1636.1,30.5 
		1443.2,54.7 1571.8,159.4 	"/>
	<polygon fill="none" stroke="#0F73A2" stroke-width="0.5" stroke-linejoin="bevel" stroke-miterlimit="10" points="1636.1,30.5 
		1443.2,54.7 1636.9,-63.7 	"/>
	<polygon fill="none" stroke="#0F73A2" stroke-width="0.5" stroke-linejoin="bevel" stroke-miterlimit="10" points="1476.8,-166.1 
		1443.2,54.7 1636.9,-63.7 	"/>
	<polygon fill="none" stroke="#0F73A2" stroke-width="0.5" stroke-linejoin="bevel" stroke-miterlimit="10" points="1476.8,-166.1 
		1443.2,54.7 1397.7,10.9 	"/>
	<polygon fill="none" stroke="#0F73A2" stroke-width="0.5" stroke-linejoin="bevel" stroke-miterlimit="10" points="1285.7,117.1 
		1443.2,54.7 1397.7,10.9 	"/>
	<polygon fill="none" stroke="#0F73A2" stroke-width="0.5" stroke-linejoin="bevel" stroke-miterlimit="10" points="1285.7,117.1 
		1244.8,-82.2 1397.7,10.9 	"/>
	<polygon fill="none" stroke="#0F73A2" stroke-width="0.5" stroke-linejoin="bevel" stroke-miterlimit="10" points="1285.7,117.1 
		1244.8,-82.2 1119.9,91.9 	"/>
	<polygon fill="none" stroke="#0F73A2" stroke-width="0.5" stroke-linejoin="bevel" stroke-miterlimit="10" points="1113.3,-100.9 
		1244.8,-82.2 1119.9,91.9 	"/>
	<polygon fill="none" stroke="#0F73A2" stroke-width="0.5" stroke-linejoin="bevel" stroke-miterlimit="10" points="1024.5,37.4 
		1113.3,-100.9 1119.9,91.9 	"/>
	<polygon fill="none" stroke="#0F73A2" stroke-width="0.5" stroke-linejoin="bevel" stroke-miterlimit="10" points="1024.5,37.4 
		909.4,223.8 1119.9,91.9 	"/>
	<polygon fill="none" stroke="#0F73A2" stroke-width="0.5" stroke-linejoin="bevel" stroke-miterlimit="10" points="1024.5,38.6 
		909.4,223.8 923.4,36.7 	"/>
	<polygon fill="none" stroke="#0F73A2" stroke-width="0.5" stroke-linejoin="bevel" stroke-miterlimit="10" points="1024.5,38.6 
		1000.7,-131.4 923.4,36.7 	"/>
	<polygon fill="none" stroke="#0F73A2" stroke-width="0.5" stroke-linejoin="bevel" stroke-miterlimit="10" points="1024.5,37.9 
		1000.7,-131.4 1113.3,-100.9 	"/>
	<polygon fill="none" stroke="#0F73A2" stroke-width="0.5" stroke-linejoin="bevel" stroke-miterlimit="10" points="1095.6,-261 
		1244.8,-82.2 1113.3,-100.9 	"/>
	<polygon fill="none" stroke="#0F73A2" stroke-width="0.5" stroke-linejoin="bevel" stroke-miterlimit="10" points="1095.6,-261 
		1244.8,-82.2 1443.2,-378.6 	"/>
	<polygon fill="none" stroke="#0F73A2" stroke-width="0.5" stroke-linejoin="bevel" stroke-miterlimit="10" points="1368.2,-114 
		1244.8,-82.2 1443.2,-378.6 	"/>
	<polygon fill="none" stroke="#0F73A2" stroke-width="0.5" stroke-linejoin="bevel" stroke-miterlimit="10" points="1368.2,-114 
		1244.8,-82.2 1397.7,10.9 	"/>
	<polygon fill="none" stroke="#0F73A2" stroke-width="0.5" stroke-linejoin="bevel" stroke-miterlimit="10" points="1368.2,-114 
		1476.8,-166.1 1397.7,10.9 	"/>
	<polygon fill="none" stroke="#0F73A2" stroke-width="0.5" stroke-linejoin="bevel" stroke-miterlimit="10" points="1636.9,-63.7 
		1476.8,-166.1 1685.4,-246.3 	"/>
	<polygon fill="none" stroke="#0F73A2" stroke-width="0.5" stroke-linejoin="bevel" stroke-miterlimit="10" points="1636.9,-63.7 
		1708.7,-66.2 1685.4,-246.3 	"/>
	<polygon fill="none" stroke="#0F73A2" stroke-width="0.5" stroke-linejoin="bevel" stroke-miterlimit="10" points="1803.9,-128.3 
		1708.7,-66.2 1685.4,-246.3 	"/>
	<polygon fill="none" stroke="#0F73A2" stroke-width="0.5" stroke-linejoin="bevel" stroke-miterlimit="10" points="1803.9,-128.3 
		1708.7,-66.2 1996.8,-35.7 	"/>
	<polygon fill="none" stroke="#0F73A2" stroke-width="0.5" stroke-linejoin="bevel" stroke-miterlimit="10" points="1802.6,-128.3 
		1993.3,-220.8 1993.3,-38.4 	"/>
	<path fill="none" stroke="#0F73A2" stroke-width="0.5" stroke-linejoin="bevel" stroke-miterlimit="10" d="M1244.8-82.2"/>
	<polygon fill="none" stroke="#0F73A2" stroke-width="0.5" stroke-linejoin="bevel" stroke-miterlimit="10" points="907.5,-132.5 
		1000.7,-131.4 923.4,36.7 	"/>
	<polygon fill="none" stroke="#0F73A2" stroke-width="0.5" stroke-linejoin="bevel" stroke-miterlimit="10" points="772.3,66.8 
		909.4,223.8 923.4,37.4 	"/>
	<polygon fill="none" stroke="#0F73A2" stroke-width="0.5" stroke-linejoin="bevel" stroke-miterlimit="10" points="772.3,66.8 
		778,-96.4 923.4,37.4 	"/>
	<polygon fill="none" stroke="#0F73A2" stroke-width="0.5" stroke-linejoin="bevel" stroke-miterlimit="10" points="907.5,-132.5 
		778,-96.4 923.4,37.4 	"/>
	<polygon fill="none" stroke="#0F73A2" stroke-width="0.5" stroke-linejoin="bevel" stroke-miterlimit="10" points="772.3,66.8 
		814,214.3 763.1,219.9 	"/>
	<polygon fill="none" stroke="#0F73A2" stroke-width="0.5" stroke-linejoin="bevel" stroke-miterlimit="10" points="772.3,66.8 
		814,214.3 909.4,223.8 	"/>
	<polygon fill="none" stroke="#0F73A2" stroke-width="0.5" stroke-linejoin="bevel" stroke-miterlimit="10" points="772.3,66.8 
		667.1,129.6 763.1,219.9 	"/>
	<polygon fill="none" stroke="#0F73A2" stroke-width="0.5" stroke-linejoin="bevel" stroke-miterlimit="10" points="555.6,54.7 
		667.1,129.6 778,-96.4 	"/>
	<polygon fill="none" stroke="#0F73A2" stroke-width="0.5" stroke-linejoin="bevel" stroke-miterlimit="10" points="555.6,54.7 
		498,-3.7 778,-96.4 	"/>
	<polygon fill="none" stroke="#0F73A2" stroke-width="0.5" stroke-linejoin="bevel" stroke-miterlimit="10" points="528.3,-212.6 
		498,-3.7 601.5,-91.1 	"/>
	<polygon fill="none" stroke="#0F73A2" stroke-width="0.5" stroke-linejoin="bevel" stroke-miterlimit="10" points="498,-3.7 
		778,-96.4 601.5,-91.1 	"/>
	<polygon fill="none" stroke="#0F73A2" stroke-width="0.5" stroke-linejoin="bevel" stroke-miterlimit="10" points="592.6,232.6 
		667.1,129.6 763.1,219.9 	"/>
	<polygon fill="none" stroke="#0F73A2" stroke-width="0.5" stroke-linejoin="bevel" stroke-miterlimit="10" points="592.6,232.6 
		667.1,129.6 555.6,54.7 	"/>
	<polygon fill="none" stroke="#0F73A2" stroke-width="0.5" stroke-linejoin="bevel" stroke-miterlimit="10" points="592.6,232.6 
		482.6,185.2 555.6,54.7 	"/>
	<polygon fill="none" stroke="#0F73A2" stroke-width="0.5" stroke-linejoin="bevel" stroke-miterlimit="10" points="498,-3.7 
		482.6,185.2 555.6,54.7 	"/>
	<polygon fill="none" stroke="#0F73A2" stroke-width="0.5" stroke-linejoin="bevel" stroke-miterlimit="10" points="272,143.6 
		482.6,185.2 334.5,292.2 	"/>
	<polygon fill="none" stroke="#0F73A2" stroke-width="0.5" stroke-linejoin="bevel" stroke-miterlimit="10" points="272,143.6 
		482.6,185.2 498,-3.7 	"/>
	<polygon fill="none" stroke="#0F73A2" stroke-width="0.5" stroke-linejoin="bevel" stroke-miterlimit="10" points="272,143.6 
		397.8,10.9 498,-3.7 	"/>
	<polygon fill="none" stroke="#0F73A2" stroke-width="0.5" stroke-linejoin="bevel" stroke-miterlimit="10" points="423,-193.1 
		397.8,10.9 498,-3.7 	"/>
	<polygon fill="none" stroke="#0F73A2" stroke-width="0.5" stroke-linejoin="bevel" stroke-miterlimit="10" points="423,-193.1 
		528.3,-212.6 498,-3.7 	"/>
	<polygon fill="none" stroke="#0F73A2" stroke-width="0.5" stroke-linejoin="bevel" stroke-miterlimit="10" points="272,143.6 
		397.8,10.9 300,-63.7 	"/>
	<polygon fill="none" stroke="#0F73A2" stroke-width="0.5" stroke-linejoin="bevel" stroke-miterlimit="10" points="423,-193.1 
		397.8,10.9 300,-63.7 	"/>
	<polygon fill="none" stroke="#0F73A2" stroke-width="0.5" stroke-linejoin="bevel" stroke-miterlimit="10" points="423,-193.1 
		202.2,-153 300,-63.7 	"/>
	<polygon fill="none" stroke="#0F73A2" stroke-width="0.5" stroke-linejoin="bevel" stroke-miterlimit="10" points="173.3,10.9 
		202.2,-153 300,-63.7 	"/>
	<polygon fill="none" stroke="#0F73A2" stroke-width="0.5" stroke-linejoin="bevel" stroke-miterlimit="10" points="173.3,10.9 
		202.2,-153 -6.2,-35.7 	"/>
	<polygon fill="none" stroke="#0F73A2" stroke-width="0.5" stroke-linejoin="bevel" stroke-miterlimit="10" points="-7.1,-320.7 
		202.2,-153 -6.2,-35.7 	"/>
	<polygon fill="none" stroke="#0F73A2" stroke-width="0.5" stroke-linejoin="bevel" stroke-miterlimit="10" points="272,143.6 
		173.3,10.9 300,-63.7 	"/>
	<polygon fill="none" stroke="#0F73A2" stroke-width="0.5" stroke-linejoin="bevel" stroke-miterlimit="10" points="272,143.6 
		173.3,10.9 122.9,98.1 	"/>
	<polygon fill="none" stroke="#0F73A2" stroke-width="0.5" stroke-linejoin="bevel" stroke-miterlimit="10" points="272,143.6 
		156.6,285.5 122.9,98.1 	"/>
	<polygon fill="none" stroke="#0F73A2" stroke-width="0.5" stroke-linejoin="bevel" stroke-miterlimit="10" points="-6.2,-35.7 
		173.3,10.9 122.9,98.1 	"/>
	<polygon fill="none" stroke="#0F73A2" stroke-width="0.5" stroke-linejoin="bevel" stroke-miterlimit="10" points="-5.2,-35.7 
		-5.2,174.8 123.8,98.1 	"/>
	<polygon fill="none" stroke="#0F73A2" stroke-width="0.5" stroke-linejoin="bevel" stroke-miterlimit="10" points="156.6,285.5 
		-6.2,174.8 122.9,98.1 	"/>
	<polygon fill="none" stroke="#0F73A2" stroke-width="0.5" stroke-linejoin="bevel" stroke-miterlimit="10" points="157.5,285.5 
		-5.2,174.8 -5.2,266.8 	"/>
	<polygon fill="none" stroke="#0F73A2" stroke-width="0.5" stroke-linejoin="bevel" stroke-miterlimit="10" points="157.5,285.5 
		-5.2,411.4 -5.2,266.8 	"/>
	<polygon fill="none" stroke="#0F73A2" stroke-width="0.5" stroke-linejoin="bevel" stroke-miterlimit="10" points="156.6,285.5 
		-6.2,411.4 214.2,355.6 	"/>
	<polygon fill="none" stroke="#0F73A2" stroke-width="0.5" stroke-linejoin="bevel" stroke-miterlimit="10" points="156.6,285.5 
		334.5,292.2 214.2,355.6 	"/>
	<polygon fill="none" stroke="#0F73A2" stroke-width="0.5" stroke-linejoin="bevel" stroke-miterlimit="10" points="592.6,232.6 
		482.6,185.2 554.4,338.4 	"/>
	<polygon fill="none" stroke="#0F73A2" stroke-width="0.5" stroke-linejoin="bevel" stroke-miterlimit="10" points="334.5,292.2 
		482.6,185.2 554.4,338.4 	"/>
	<polygon fill="none" stroke="#0F73A2" stroke-width="0.5" stroke-linejoin="bevel" stroke-miterlimit="10" points="861.9,271.1 
		813.5,214.3 909.4,223.8 	"/>
	<polygon fill="none" stroke="#0F73A2" stroke-width="0.5" stroke-linejoin="bevel" stroke-miterlimit="10" points="861.9,271.1 
		813.5,214.3 763.1,219.9 	"/>
	<polygon fill="none" stroke="#0F73A2" stroke-width="0.5" stroke-linejoin="bevel" stroke-miterlimit="10" points="861.9,271.1 
		683.9,292.2 763.1,219.9 	"/>
	<polygon fill="none" stroke="#0F73A2" stroke-width="0.5" stroke-linejoin="bevel" stroke-miterlimit="10" points="592.6,232.6 
		683.9,292.2 763.1,219.9 	"/>
	<polygon fill="none" stroke="#0F73A2" stroke-width="0.5" stroke-linejoin="bevel" stroke-miterlimit="10" points="592.6,232.6 
		683.9,292.2 554.4,338.4 	"/>
	<polygon fill="none" stroke="#0F73A2" stroke-width="0.5" stroke-linejoin="bevel" stroke-miterlimit="10" points="861.3,271.1 
		863.5,594.5 683.5,292.2 	"/>
	<polygon fill="none" stroke="#0F73A2" stroke-width="0.5" stroke-linejoin="bevel" stroke-miterlimit="10" points="1443.2,54.7 
		1424.6,219.9 1571.8,159.4 	"/>
	<path fill="none" stroke="#0F73A2" stroke-width="0.5" stroke-linejoin="bevel" stroke-miterlimit="10" d="M1248.5,509.3"/>
	<polygon fill="none" stroke="#0F73A2" stroke-width="0.5" stroke-linejoin="bevel" stroke-miterlimit="10" points="1290.4,368.7 
		1141.2,261.8 1281.5,295.6 	"/>
	<polygon fill="none" stroke="#0F73A2" stroke-width="0.5" stroke-linejoin="bevel" stroke-miterlimit="10" points="1290.4,368.7 
		1424.6,219.9 1281.5,295.6 	"/>
	<polygon fill="none" stroke="#0F73A2" stroke-width="0.5" stroke-linejoin="bevel" stroke-miterlimit="10" points="1443.2,54.7 
		1424.6,219.9 1285.7,117.1 	"/>
	<polygon fill="none" stroke="#0F73A2" stroke-width="0.5" stroke-linejoin="bevel" stroke-miterlimit="10" points="1141.2,261.8 
		1281.5,295.6 1424.6,219.9 	"/>
	<polygon fill="none" stroke="#0F73A2" stroke-width="0.5" stroke-linejoin="bevel" stroke-miterlimit="10" points="1285.7,117.1 
		1141.2,261.8 1424.6,219.9 	"/>
	<polygon fill="none" stroke="#0F73A2" stroke-width="0.5" stroke-linejoin="bevel" stroke-miterlimit="10" points="1119.9,91.9 
		1141.2,261.8 1285.7,117.1 	"/>
	<polygon fill="none" stroke="#0F73A2" stroke-width="0.5" stroke-linejoin="bevel" stroke-miterlimit="10" points="1051,509.7 
		1248.5,509.7 1111.6,629.9 	"/>
	<polygon fill="none" stroke="#0F73A2" stroke-width="0.5" stroke-linejoin="bevel" stroke-miterlimit="10" points="1051,509.3 
		937.2,691.4 1111.6,629.5 	"/>
	<polygon fill="none" stroke="#0F73A2" stroke-width="0.5" stroke-linejoin="bevel" stroke-miterlimit="10" points="889.8,820.1 
		937.2,691.4 1111.6,629.5 	"/>
	<polygon fill="none" stroke="#0F73A2" stroke-width="0.5" stroke-linejoin="bevel" stroke-miterlimit="10" points="1051,509.3 
		956.7,456.3 864,594.5 	"/>
	<polygon fill="none" stroke="#0F73A2" stroke-width="0.5" stroke-linejoin="bevel" stroke-miterlimit="10" points="1051,509.3 
		937.2,691.4 863.9,594.5 	"/>
	<polygon fill="none" stroke="#0F73A2" stroke-width="0.5" stroke-linejoin="bevel" stroke-miterlimit="10" points="864,594.5 
		937.2,691.4 747.7,675.1 	"/>
	<polygon fill="none" stroke="#0F73A2" stroke-width="0.5" stroke-linejoin="bevel" stroke-miterlimit="10" points="889.8,820.1 
		937.2,691.4 747.7,675.1 	"/>
	<polygon fill="none" stroke="#0F73A2" stroke-width="0.5" stroke-linejoin="bevel" stroke-miterlimit="10" points="864,594.5 
		648.4,413.5 747.7,675.1 	"/>
	<polygon fill="none" stroke="#0F73A2" stroke-width="0.5" stroke-linejoin="bevel" stroke-miterlimit="10" points="864,594.5 
		648.4,413.5 683.9,292.2 	"/>
	<polygon fill="none" stroke="#0F73A2" stroke-width="0.5" stroke-linejoin="bevel" stroke-miterlimit="10" points="554.4,338.4 
		648.4,413.5 683.9,292.2 	"/>
	<polygon fill="none" stroke="#0F73A2" stroke-width="0.5" stroke-linejoin="bevel" stroke-miterlimit="10" points="554.4,338.4 
		451.9,366.8 334.5,292.2 	"/>
	<polygon fill="none" stroke="#0F73A2" stroke-width="0.5" stroke-linejoin="bevel" stroke-miterlimit="10" points="364.3,398.4 
		451.9,366.8 334.5,292.2 	"/>
	<polygon fill="none" stroke="#0F73A2" stroke-width="0.5" stroke-linejoin="bevel" stroke-miterlimit="10" points="364.3,398.4 
		214.2,355.6 334.5,292.2 	"/>
	<polygon fill="none" stroke="#0F73A2" stroke-width="0.5" stroke-linejoin="bevel" stroke-miterlimit="10" points="364.3,398.4 
		214.2,355.6 272,462.7 	"/>
	<polygon fill="none" stroke="#0F73A2" stroke-width="0.5" stroke-linejoin="bevel" stroke-miterlimit="10" points="-6.2,411.4 
		214.2,355.6 272,462.7 	"/>
	<polygon fill="none" stroke="#0F73A2" stroke-width="0.5" stroke-linejoin="bevel" stroke-miterlimit="10" points="-6.2,411.4 
		178.9,629.5 272,462.7 	"/>
	<polygon fill="none" stroke="#0F73A2" stroke-width="0.5" stroke-linejoin="bevel" stroke-miterlimit="10" points="-5.2,411.4 
		179.8,629.5 -5.2,554.3 	"/>
	<polygon fill="none" stroke="#0F73A2" stroke-width="0.5" stroke-linejoin="bevel" stroke-miterlimit="10" points="-5.2,686.7 
		179.8,629.5 -5.2,554.3 	"/>
	<polygon fill="none" stroke="#0F73A2" stroke-width="0.5" stroke-linejoin="bevel" stroke-miterlimit="10" points="-5.2,686.7 
		179.8,629.5 -5.2,849.3 	"/>
	<polygon fill="none" stroke="#0F73A2" stroke-width="0.5" stroke-linejoin="bevel" stroke-miterlimit="10" points="177.5,940.2 
		178.9,629.5 -6.2,849.3 	"/>
	<polygon fill="none" stroke="#0F73A2" stroke-width="0.5" stroke-linejoin="bevel" stroke-miterlimit="10" points="177.5,940.2 
		178.9,629.5 257.2,837.7 	"/>
	<polygon fill="none" stroke="#0F73A2" stroke-width="0.5" stroke-linejoin="bevel" stroke-miterlimit="10" points="364.3,398.4 
		393.2,439.4 272,462.7 	"/>
	<polygon fill="none" stroke="#0F73A2" stroke-width="0.5" stroke-linejoin="bevel" stroke-miterlimit="10" points="554.4,338.4 
		451.9,366.8 572.5,565.6 	"/>
	<polygon fill="none" stroke="#0F73A2" stroke-width="0.5" stroke-linejoin="bevel" stroke-miterlimit="10" points="393.2,439.4 
		451.9,366.8 572.5,565.6 	"/>
	<polygon fill="none" stroke="#0F73A2" stroke-width="0.5" stroke-linejoin="bevel" stroke-miterlimit="10" points="393.2,439.4 
		272,462.7 572.5,565.6 	"/>
	<polygon fill="none" stroke="#0F73A2" stroke-width="0.5" stroke-linejoin="bevel" stroke-miterlimit="10" points="423,636.8 
		272,462.7 572.5,565.6 	"/>
	<polygon fill="none" stroke="#0F73A2" stroke-width="0.5" stroke-linejoin="bevel" stroke-miterlimit="10" points="423,636.8 
		502.2,670.2 572.5,565.6 	"/>
	<polygon fill="none" stroke="#0F73A2" stroke-width="0.5" stroke-linejoin="bevel" stroke-miterlimit="10" points="423,636.8 
		502.2,670.2 434.6,783.3 	"/>
	<polygon fill="none" stroke="#0F73A2" stroke-width="0.5" stroke-linejoin="bevel" stroke-miterlimit="10" points="423,636.8 
		322.3,750.6 434.6,783.3 	"/>
	<polygon fill="none" stroke="#0F73A2" stroke-width="0.5" stroke-linejoin="bevel" stroke-miterlimit="10" points="423,849.3 
		322.3,750.6 434.6,783.3 	"/>
	<polygon fill="none" stroke="#0F73A2" stroke-width="0.5" stroke-linejoin="bevel" stroke-miterlimit="10" points="423,849.3 
		322.3,750.6 258.2,836.5 	"/>
	<polygon fill="none" stroke="#0F73A2" stroke-width="0.5" stroke-linejoin="bevel" stroke-miterlimit="10" points="423,849.3 
		177.5,940.2 258.2,836.5 	"/>
	<polygon fill="none" stroke="#0F73A2" stroke-width="0.5" stroke-linejoin="bevel" stroke-miterlimit="10" points="423,849.3 
		177.5,940.2 370.9,1051 	"/>
	<polygon fill="none" stroke="#0F73A2" stroke-width="0.5" stroke-linejoin="bevel" stroke-miterlimit="10" points="423,849.3 
		546,951.8 370.9,1051 	"/>
	<polygon fill="none" stroke="#0F73A2" stroke-width="0.5" stroke-linejoin="bevel" stroke-miterlimit="10" points="693.2,1029.2 
		546,951.7 750,872.7 	"/>
	<polygon fill="none" stroke="#0F73A2" stroke-width="0.5" stroke-linejoin="bevel" stroke-miterlimit="10" points="693.2,1029.2 
		923.4,986.9 750,872.7 	"/>
	<polygon fill="none" stroke="#0F73A2" stroke-width="0.5" stroke-linejoin="bevel" stroke-miterlimit="10" points="1658.9,1053.8 
		1665.9,849.3 1996.8,914.5 	"/>
	<polygon fill="none" stroke="#0F73A2" stroke-width="0.5" stroke-linejoin="bevel" stroke-miterlimit="10" points="1658.9,1053.8 
		1665.9,849.3 1494.4,914.9 	"/>
	<polygon fill="none" stroke="#0F73A2" stroke-width="0.5" stroke-linejoin="bevel" stroke-miterlimit="10" points="-7.1,849.3 
		177.5,940.2 -6.2,1161.4 	"/>
	<polygon fill="none" stroke="#0F73A2" stroke-width="0.5" stroke-linejoin="bevel" stroke-miterlimit="10" points="178.9,629.5 
		322.3,750.6 257.2,837.7 	"/>
	<polygon fill="none" stroke="#0F73A2" stroke-width="0.5" stroke-linejoin="bevel" stroke-miterlimit="10" points="178.9,629.5 
		322.3,750.6 272,462.7 	"/>
	<polygon fill="none" stroke="#0F73A2" stroke-width="0.5" stroke-linejoin="bevel" stroke-miterlimit="10" points="423,636.8 
		322.3,750.6 272,462.7 	"/>
	<polygon fill="none" stroke="#0F73A2" stroke-width="0.5" stroke-linejoin="bevel" stroke-miterlimit="10" points="601.5,713.3 
		502.2,670.2 572.5,565.6 	"/>
	<polygon fill="none" stroke="#0F73A2" stroke-width="0.5" stroke-linejoin="bevel" stroke-miterlimit="10" points="601.5,713.3 
		502.2,670.2 434.6,783.3 	"/>
	<polygon fill="none" stroke="#0F73A2" stroke-width="0.5" stroke-linejoin="bevel" stroke-miterlimit="10" points="601.5,713.3 
		693.2,773.9 572.5,565.6 	"/>
	<polygon fill="none" stroke="#0F73A2" stroke-width="0.5" stroke-linejoin="bevel" stroke-miterlimit="10" points="393.2,439.4 
		451.9,366.8 364.3,398.4 	"/>
	<polygon fill="none" stroke="#0F73A2" stroke-width="0.5" stroke-linejoin="bevel" stroke-miterlimit="10" points="554.4,338.4 
		648.4,413.5 572.5,565.6 	"/>
	<polygon fill="none" stroke="#0F73A2" stroke-width="0.5" stroke-linejoin="bevel" stroke-miterlimit="10" points="747.7,675.1 
		648.4,413.5 572.5,565.6 	"/>
	<polygon fill="none" stroke="#0F73A2" stroke-width="0.5" stroke-linejoin="bevel" stroke-miterlimit="10" points="747.7,675.1 
		693.2,773.9 572.5,565.6 	"/>
	<polygon fill="none" stroke="#0F73A2" stroke-width="0.5" stroke-linejoin="bevel" stroke-miterlimit="10" points="909.4,223.8 
		861.9,271.1 956.7,456.3 	"/>
	<polygon fill="none" stroke="#0F73A2" stroke-width="0.5" stroke-linejoin="bevel" stroke-miterlimit="10" points="861.3,271.1 
		863.5,594.5 956.2,456.3 	"/>
	<polygon fill="none" stroke="#0F73A2" stroke-width="0.5" stroke-linejoin="bevel" stroke-miterlimit="10" points="909.4,223.8 
		956.7,456.3 1141.2,365 	"/>
</g>
</svg>
