<?xml version="1.0" encoding="utf-8"?>
<!-- Generator: Adobe Illustrator 17.1.0, SVG Export Plug-In . SVG Version: 6.00 Build 0)  -->
<!DOCTYPE svg PUBLIC "-//W3C//DTD SVG 1.1//EN" "http://www.w3.org/Graphics/SVG/1.1/DTD/svg11.dtd">
<svg version="1.1" id="Warstwa_1" xmlns="http://www.w3.org/2000/svg" xmlns:xlink="http://www.w3.org/1999/xlink" x="0px" y="0px"
	 viewBox="0 0 895.5 1348.1" enable-background="new 0 0 895.5 1348.1" xml:space="preserve">
<path fill="#F2F2F2" d="M161.5,17.8l-140.9,141c-1.4,1.3-2.2,3.1-2.2,4.9v991.3c0,2.2,1.3,4.2,3.4,4.8c0.5,0.1,0.9,0.2,1.4,0.2
	c1.6,0,3.2-0.8,4.1-2.2l282.5-423.8l565.5-282.7c0.2-0.1,0.4-0.2,0.6-0.3c1.6-0.9,2.4-2.6,2.4-4.4V133.9c0-2.5-1.7-4.6-4.1-4.9
	L165.9,16.2C163.1,15.9,161.5,17.8,161.5,17.8z M162,31.5l132.5,662.7L29.4,164L162,31.5z M28.4,1138.4V184.2L301,729.5L28.4,1138.4
	z M310.3,722.5l-138.2-691l690.9,414.7L310.3,722.5z M868.4,437.7L189.7,30.3l678.7,107.8V437.7z"/>
</svg>
