<?xml version="1.0" encoding="utf-8"?>
<!-- Generator: Adobe Illustrator 17.1.0, SVG Export Plug-In . SVG Version: 6.00 Build 0)  -->
<!DOCTYPE svg PUBLIC "-//W3C//DTD SVG 1.1//EN" "http://www.w3.org/Graphics/SVG/1.1/DTD/svg11.dtd">
<svg version="1.1" id="Warstwa_1" xmlns="http://www.w3.org/2000/svg" xmlns:xlink="http://www.w3.org/1999/xlink" x="0px" y="0px"
	 viewBox="0 0 895.5 1348.1" enable-background="new 0 0 895.5 1348.1" xml:space="preserve">
<path fill="#F2F2F2" d="M161.5,17.8l-140.9,141c-1.4,1.3-2.2,3.1-2.2,4.9v991.3c0,2.2,1.3,4.2,3.4,4.8c0.5,0.1,0.9,0.2,1.4,0.2
	c1.6,0,3.2-0.8,4.1-2.2l282.5-423.8l565.5-282.7c0.2-0.1,0.4-0.2,0.6-0.3c1.6-0.9,2.4-2.6,2.4-4.4V133.9c0-2.5-1.7-4.6-4.1-4.9
	L165.9,16.2C163.1,15.9,161.5,17.8,161.5,17.8z M162,31.5l132.5,662.7L29.4,164L162,31.5z M28.4,1138.4V184.2L301,729.5L28.4,1138.4
	z M310.3,722.5l-138.2-691l690.9,414.7L310.3,722.5z M868.4,437.7L189.7,30.3l678.7,107.8V437.7z"/>
<path fill="#F2F2F2" d="M874.8,121L166.3,8.2l-0.2,0c-0.4,0-0.8,0-1.1,0c-4.3,0-7.8,2.1-9.7,4.1L14.3,153c-3,2.7-5,6.7-5,10.7v991.3
	c0,5.8,3.9,10.8,9.3,12.4c1.2,0.4,2.6,0.6,3.9,0.6c4.3,0,8.4-2.2,10.9-5.8l281.4-422l563.3-281.6c0.5-0.2,0.7-0.4,1-0.6
	c4-2.3,6.2-6.6,6.2-11.3V133.9C885.4,127.4,881.1,122,874.8,121z M35.4,1112V218.1l255.4,510.8L35.4,1112z M38.7,165.6L156.5,47.7
	l117.9,589.5L38.7,165.6z M846,445.5L315.6,710.6L183,47.6L846,445.5z M859.4,145v278.6L228.2,44.7L859.4,145z"/>
</svg>
