<?xml version="1.0" encoding="utf-8"?>
<!-- Generator: Adobe Illustrator 17.1.0, SVG Export Plug-In . SVG Version: 6.00 Build 0)  -->
<!DOCTYPE svg PUBLIC "-//W3C//DTD SVG 1.1//EN" "http://www.w3.org/Graphics/SVG/1.1/DTD/svg11.dtd">
<svg version="1.1" id="Warstwa_1" xmlns="http://www.w3.org/2000/svg" xmlns:xlink="http://www.w3.org/1999/xlink" x="0px" y="0px"
	 viewBox="0 0 1485 715.4" enable-background="new 0 0 1485 715.4" xml:space="preserve">
<polygon fill="none" stroke="#0F73A2" stroke-width="0.5" stroke-linejoin="bevel" stroke-miterlimit="10" points="830.5,125.6 
	846.4,251.8 674.1,223.6 "/>
<polygon fill="none" stroke="#0F73A2" stroke-width="0.5" stroke-linejoin="bevel" stroke-miterlimit="10" points="200.5,164 
	114.7,269.4 246.9,274.4 "/>
<polygon fill="none" stroke="#0F73A2" stroke-width="0.5" stroke-linejoin="bevel" stroke-miterlimit="10" points="572.3,106.9 
	494.1,153.6 576.5,-14.3 "/>
<polygon fill="none" stroke="#0F73A2" stroke-width="0.5" stroke-linejoin="bevel" stroke-miterlimit="10" points="953.3,534.4 
	1080.4,601.1 1056.9,516.8 "/>
<polygon fill="none" stroke="#0F73A2" stroke-width="0.5" stroke-linejoin="bevel" stroke-miterlimit="10" points="602.8,216.5 
	638.8,258.7 674.1,223.6 "/>
<polygon fill="none" stroke="#0F73A2" stroke-width="0.5" stroke-linejoin="bevel" stroke-miterlimit="10" points="779.3,435.7 
	709.3,396.3 846.4,328.5 "/>
<line fill="none" stroke="#0F73A2" stroke-width="0.5" stroke-linejoin="bevel" stroke-miterlimit="10" x1="926.1" y1="435.7" x2="846.4" y2="328.5"/>
<polygon fill="none" stroke="#0F73A2" stroke-width="0.5" stroke-linejoin="bevel" stroke-miterlimit="10" points="957.2,331.2 
	926.1,435.7 1075.6,290.3 "/>
<polygon fill="none" stroke="#0F73A2" stroke-width="0.5" stroke-linejoin="bevel" stroke-miterlimit="10" points="1046.5,423.9 
	926.1,435.7 1075.6,290.3 "/>
<polygon fill="none" stroke="#0F73A2" stroke-width="0.5" stroke-linejoin="bevel" stroke-miterlimit="10" points="1046.5,423.9 
	926.1,435.7 1008.1,474.5 "/>
<polygon fill="none" stroke="#0F73A2" stroke-width="0.5" stroke-linejoin="bevel" stroke-miterlimit="10" points="953.3,534.4 
	926.1,435.7 1008.1,474.5 "/>
<polygon fill="none" stroke="#0F73A2" stroke-width="0.5" stroke-linejoin="bevel" stroke-miterlimit="10" points="1046.5,423.9 
	1120.6,505.9 1008.1,474.5 "/>
<polygon fill="none" stroke="#0F73A2" stroke-width="0.5" stroke-linejoin="bevel" stroke-miterlimit="10" points="953.3,534.4 
	1120.6,505.9 1008.1,474.5 "/>
<polygon fill="none" stroke="#0F73A2" stroke-width="0.5" stroke-linejoin="bevel" stroke-miterlimit="10" points="953.3,534.4 
	1080.4,601.1 880.3,602.2 "/>
<polygon fill="none" stroke="#0F73A2" stroke-width="0.5" stroke-linejoin="bevel" stroke-miterlimit="10" points="782,740.4 
	1080.4,601.1 880.3,602.2 "/>
<polygon fill="none" stroke="#0F73A2" stroke-width="0.5" stroke-linejoin="bevel" stroke-miterlimit="10" points="782,740.4 
	1080.4,601.1 1027.1,736.8 "/>
<polygon fill="none" stroke="#0F73A2" stroke-width="0.5" stroke-linejoin="bevel" stroke-miterlimit="10" points="1108.8,737.1 
	1080.4,601.1 1027.1,736.8 "/>
<polygon fill="none" stroke="#0F73A2" stroke-width="0.5" stroke-linejoin="bevel" stroke-miterlimit="10" points="1108.8,737.1 
	1080.4,601.1 1236.2,688.3 "/>
<polygon fill="none" stroke="#0F73A2" stroke-width="0.5" stroke-linejoin="bevel" stroke-miterlimit="10" points="1214,587.3 
	1080.4,601.1 1236.2,688.3 "/>
<polygon fill="none" stroke="#0F73A2" stroke-width="0.5" stroke-linejoin="bevel" stroke-miterlimit="10" points="1214,587.3 
	1287.4,576.2 1236.2,688.3 "/>
<polygon fill="none" stroke="#0F73A2" stroke-width="0.5" stroke-linejoin="bevel" stroke-miterlimit="10" points="1502.1,736.8 
	1287.4,576.2 1236.2,688.3 "/>
<polygon fill="none" stroke="#0F73A2" stroke-width="0.5" stroke-linejoin="bevel" stroke-miterlimit="10" points="1120.6,505.9 
	1080.4,601.1 1056.9,516.8 "/>
<polygon fill="none" stroke="#0F73A2" stroke-width="0.5" stroke-linejoin="bevel" stroke-miterlimit="10" points="1046.5,423.9 
	1120.6,505.9 1144.8,372.7 "/>
<polygon fill="none" stroke="#0F73A2" stroke-width="0.5" stroke-linejoin="bevel" stroke-miterlimit="10" points="1204.4,432.2 
	1120.6,505.9 1144.8,372.7 "/>
<polygon fill="none" stroke="#0F73A2" stroke-width="0.5" stroke-linejoin="bevel" stroke-miterlimit="10" points="1204.4,432.2 
	1276.3,274.4 1144.8,372.7 "/>
<polygon fill="none" stroke="#0F73A2" stroke-width="0.5" stroke-linejoin="bevel" stroke-miterlimit="10" points="1204.4,432.2 
	1276.3,274.4 1287.4,366.1 "/>
<polygon fill="none" stroke="#0F73A2" stroke-width="0.5" stroke-linejoin="bevel" stroke-miterlimit="10" points="1204.4,432.2 
	1284,486.2 1287.4,366.1 "/>
<polygon fill="none" stroke="#0F73A2" stroke-width="0.5" stroke-linejoin="bevel" stroke-miterlimit="10" points="1356.7,392.8 
	1284,486.2 1287.4,366.1 "/>
<polygon fill="none" stroke="#0F73A2" stroke-linejoin="bevel" stroke-miterlimit="10" points="1356.5,268.2 1356.5,392.8 
	1287.3,366.1 "/>
<polygon fill="none" stroke="#0F73A2" stroke-width="0.5" stroke-linejoin="bevel" stroke-miterlimit="10" points="1204.4,432.2 
	1284,486.2 1120.6,505.9 "/>
<polygon fill="none" stroke="#0F73A2" stroke-width="0.5" stroke-linejoin="bevel" stroke-miterlimit="10" points="1080.4,601.1 
	1284,486.2 1120.6,505.9 "/>
<polygon fill="none" stroke="#0F73A2" stroke-width="0.5" stroke-linejoin="bevel" stroke-miterlimit="10" points="1214,587.3 
	1284,486.2 1287.4,576.2 "/>
<polygon fill="none" stroke="#0F73A2" stroke-width="0.5" stroke-linejoin="bevel" stroke-miterlimit="10" points="1502.1,491.8 
	1284,486.2 1287.4,576.2 "/>
<polygon fill="none" stroke="#0F73A2" stroke-linejoin="bevel" stroke-miterlimit="10" points="1499.5,493 1499.5,553.5 
	1286.4,576.2 "/>
<polygon fill="none" stroke="#0F73A2" stroke-linejoin="bevel" stroke-miterlimit="10" points="1499.5,734.4 1499.5,553.5 
	1286.4,576.2 "/>
<polygon fill="none" stroke="#0F73A2" stroke-width="0.5" stroke-linejoin="bevel" stroke-miterlimit="10" points="1502.1,491.8 
	1284,486.2 1370.5,432.2 "/>
<polygon fill="none" stroke="#0F73A2" stroke-linejoin="bevel" stroke-miterlimit="10" points="1499.5,490.6 1499.5,426.6 
	1369.5,432.2 "/>
<polygon fill="none" stroke="#0F73A2" stroke-width="0.5" stroke-linejoin="bevel" stroke-miterlimit="10" points="1356.7,392.8 
	1284,486.2 1370.5,432.2 "/>
<polygon fill="none" stroke="#0F73A2" stroke-width="0.5" stroke-linejoin="bevel" stroke-miterlimit="10" points="1356.7,392.8 
	1502.1,426.2 1370.5,432.2 "/>
<polygon fill="none" stroke="#0F73A2" stroke-miterlimit="10" points="1355.5,392.8 1500.9,426.2 1357.2,268.7 "/>
<polygon fill="none" stroke="#0F73A2" stroke-width="0.5" stroke-linejoin="bevel" stroke-miterlimit="10" points="1080.4,601.1 
	1284,486.2 1214,587.3 "/>
<polygon fill="none" stroke="#0F73A2" stroke-width="0.5" stroke-linejoin="bevel" stroke-miterlimit="10" points="1356.7,268.2 
	1276.3,274.4 1287.4,366.1 "/>
<polygon fill="none" stroke="#0F73A2" stroke-width="0.5" stroke-linejoin="bevel" stroke-miterlimit="10" points="1356.7,268.2 
	1276.3,274.4 1339.1,147.8 "/>
<polygon fill="none" stroke="#0F73A2" stroke-width="0.5" stroke-linejoin="bevel" stroke-miterlimit="10" points="1356.7,268.2 
	1502.1,179.6 1339.1,147.8 "/>
<polygon fill="none" stroke="#0F73A2" stroke-width="0.5" stroke-linejoin="bevel" stroke-miterlimit="10" points="1500.5,32.1 
	1499.8,178.1 1339.1,147.8 "/>
<polygon fill="none" stroke="#0F73A2" stroke-width="0.5" stroke-linejoin="bevel" stroke-miterlimit="10" points="1151.7,244.6 
	1276.3,274.4 1144.8,372.7 "/>
<polygon fill="none" stroke="#0F73A2" stroke-width="0.5" stroke-linejoin="bevel" stroke-miterlimit="10" points="1046.5,423.9 
	1075.6,290.3 1144.8,372.7 "/>
<polygon fill="none" stroke="#0F73A2" stroke-width="0.5" stroke-linejoin="bevel" stroke-miterlimit="10" points="1151.7,244.6 
	1075.6,290.3 1144.8,372.7 "/>
<polygon fill="none" stroke="#0F73A2" stroke-width="0.5" stroke-linejoin="bevel" stroke-miterlimit="10" points="880.3,602.2 
	926.1,435.7 824.3,525 "/>
<polygon fill="none" stroke="#0F73A2" stroke-width="0.5" stroke-linejoin="bevel" stroke-miterlimit="10" points="880.3,602.2 
	659.5,666.6 824.3,525 "/>
<polygon fill="none" stroke="#0F73A2" stroke-width="0.5" stroke-linejoin="bevel" stroke-miterlimit="10" points="880.3,602.2 
	659.5,666.6 782,740.4 "/>
<polygon fill="none" stroke="#0F73A2" stroke-width="0.5" stroke-linejoin="bevel" stroke-miterlimit="10" points="684.5,790.5 
	659.5,666.6 782,740.4 "/>
<polygon fill="none" stroke="#0F73A2" stroke-width="0.5" stroke-linejoin="bevel" stroke-miterlimit="10" points="684.5,790.5 
	659.5,666.6 555.7,705.7 "/>
<polygon fill="none" stroke="#0F73A2" stroke-width="0.5" stroke-linejoin="bevel" stroke-miterlimit="10" points="513.5,632.3 
	659.5,666.6 555.7,705.7 "/>
<polygon fill="none" stroke="#0F73A2" stroke-width="0.5" stroke-linejoin="bevel" stroke-miterlimit="10" points="513.5,632.3 
	459.5,664.5 555.7,705.7 "/>
<polygon fill="none" stroke="#0F73A2" stroke-width="0.5" stroke-linejoin="bevel" stroke-miterlimit="10" points="513.5,632.3 
	459.5,664.5 445.3,587.3 "/>
<polygon fill="none" stroke="#0F73A2" stroke-width="0.5" stroke-linejoin="bevel" stroke-miterlimit="10" points="555.7,705.7 
	459.5,664.5 404.1,764.5 "/>
<polygon fill="none" stroke="#0F73A2" stroke-width="0.5" stroke-linejoin="bevel" stroke-miterlimit="10" points="321.3,639.3 
	459.5,664.5 445.3,587.3 "/>
<polygon fill="none" stroke="#0F73A2" stroke-width="0.5" stroke-linejoin="bevel" stroke-miterlimit="10" points="321.3,639.3 
	459.5,664.5 404.1,764.5 "/>
<polygon fill="none" stroke="#0F73A2" stroke-width="0.5" stroke-linejoin="bevel" stroke-miterlimit="10" points="321.3,639.3 
	312.7,688.3 404.1,764.5 "/>
<polygon fill="none" stroke="#0F73A2" stroke-width="0.5" stroke-linejoin="bevel" stroke-miterlimit="10" points="513.5,632.3 
	659.5,666.6 554,558.9 "/>
<polygon fill="none" stroke="#0F73A2" stroke-width="0.5" stroke-linejoin="bevel" stroke-miterlimit="10" points="957.2,331.2 
	1056.9,220.7 1075.6,290.3 "/>
<polygon fill="none" stroke="#0F73A2" stroke-width="0.5" stroke-linejoin="bevel" stroke-miterlimit="10" points="1151.7,244.6 
	1056.9,220.7 1075.6,290.3 "/>
<polygon fill="none" stroke="#0F73A2" stroke-width="0.5" stroke-linejoin="bevel" stroke-miterlimit="10" points="1151.7,244.6 
	1056.9,220.7 1166.3,175.7 "/>
<polygon fill="none" stroke="#0F73A2" stroke-width="0.5" stroke-linejoin="bevel" stroke-miterlimit="10" points="1151.7,244.6 
	1276.3,274.4 1166.3,175.7 "/>
<polygon fill="none" stroke="#0F73A2" stroke-width="0.5" stroke-linejoin="bevel" stroke-miterlimit="10" points="1339.1,147.8 
	1276.3,274.4 1166.3,175.7 "/>
<polygon fill="none" stroke="#0F73A2" stroke-width="0.5" stroke-linejoin="bevel" stroke-miterlimit="10" points="1339.1,147.8 
	1299.6,97.9 1166.3,175.7 "/>
<polygon fill="none" stroke="#0F73A2" stroke-width="0.5" stroke-linejoin="bevel" stroke-miterlimit="10" points="1339.1,147.8 
	1299.6,97.9 1502.1,30.8 "/>
<polygon fill="none" stroke="#0F73A2" stroke-width="0.5" stroke-linejoin="bevel" stroke-miterlimit="10" points="1268,8.1 
	1299.6,97.9 1502.1,30.8 "/>
<polygon fill="none" stroke="#0F73A2" stroke-width="0.5" stroke-linejoin="bevel" stroke-miterlimit="10" points="1268,8.1 
	1299.6,97.9 1214,79.9 "/>
<polygon fill="none" stroke="#0F73A2" stroke-width="0.5" stroke-linejoin="bevel" stroke-miterlimit="10" points="1268,8.1 
	1214.6,10 1214,79.9 "/>
<polygon fill="none" stroke="#0F73A2" stroke-width="0.5" stroke-linejoin="bevel" stroke-miterlimit="10" points="1214,79.9 
	1299.6,97.9 1166.3,175.7 "/>
<polygon fill="none" stroke="#0F73A2" stroke-width="0.5" stroke-linejoin="bevel" stroke-miterlimit="10" points="1214,79.9 
	1070.7,97.9 1166.3,175.7 "/>
<polygon fill="none" stroke="#0F73A2" stroke-width="0.5" stroke-linejoin="bevel" stroke-miterlimit="10" points="1214,79.9 
	1070.7,97.9 1214.6,10 "/>
<polygon fill="none" stroke="#0F73A2" stroke-width="0.5" stroke-linejoin="bevel" stroke-miterlimit="10" points="1095.7,-66.1 
	1070.7,97.9 1214.6,10 "/>
<polygon fill="none" stroke="#0F73A2" stroke-width="0.5" stroke-linejoin="bevel" stroke-miterlimit="10" points="1095.7,-66.1 
	1070.7,97.9 1036.9,65.4 "/>
<polygon fill="none" stroke="#0F73A2" stroke-width="0.5" stroke-linejoin="bevel" stroke-miterlimit="10" points="953.7,144.3 
	1070.7,97.9 1036.9,65.4 "/>
<polygon fill="none" stroke="#0F73A2" stroke-width="0.5" stroke-linejoin="bevel" stroke-miterlimit="10" points="953.7,144.3 
	923.3,-3.8 1036.9,65.4 "/>
<polygon fill="none" stroke="#0F73A2" stroke-width="0.5" stroke-linejoin="bevel" stroke-miterlimit="10" points="953.7,144.3 
	923.3,-3.8 830.5,125.6 "/>
<polygon fill="none" stroke="#0F73A2" stroke-width="0.5" stroke-linejoin="bevel" stroke-miterlimit="10" points="825.6,-17.7 
	923.3,-3.8 830.5,125.6 "/>
<polygon fill="none" stroke="#0F73A2" stroke-width="0.5" stroke-linejoin="bevel" stroke-miterlimit="10" points="759.6,85.1 
	825.6,-17.7 830.5,125.6 "/>
<polygon fill="none" stroke="#0F73A2" stroke-width="0.5" stroke-linejoin="bevel" stroke-miterlimit="10" points="759.6,85.1 
	674.1,223.6 830.5,125.6 "/>
<polygon fill="none" stroke="#0F73A2" stroke-width="0.5" stroke-linejoin="bevel" stroke-miterlimit="10" points="759.6,86 
	674.1,223.6 684.5,84.6 "/>
<polygon fill="none" stroke="#0F73A2" stroke-width="0.5" stroke-linejoin="bevel" stroke-miterlimit="10" points="759.6,86 
	741.9,-40.4 684.5,84.6 "/>
<polygon fill="none" stroke="#0F73A2" stroke-width="0.5" stroke-linejoin="bevel" stroke-miterlimit="10" points="759.6,85.5 
	741.9,-40.4 825.6,-17.7 "/>
<polygon fill="none" stroke="#0F73A2" stroke-width="0.5" stroke-linejoin="bevel" stroke-miterlimit="10" points="1015,-27.4 
	923.3,-3.8 1036.9,65.4 "/>
<polygon fill="none" stroke="#0F73A2" stroke-width="0.5" stroke-linejoin="bevel" stroke-miterlimit="10" points="1015,-27.4 
	1095.7,-66.1 1036.9,65.4 "/>
<polygon fill="none" stroke="#0F73A2" stroke-width="0.5" stroke-linejoin="bevel" stroke-miterlimit="10" points="1214.6,10 
	1095.7,-66.1 1250.7,-125.7 "/>
<polygon fill="none" stroke="#0F73A2" stroke-width="0.5" stroke-linejoin="bevel" stroke-miterlimit="10" points="1214.6,10 
	1268,8.1 1250.7,-125.7 "/>
<polygon fill="none" stroke="#0F73A2" stroke-width="0.5" stroke-linejoin="bevel" stroke-miterlimit="10" points="1338.7,-38.1 
	1268,8.1 1250.7,-125.7 "/>
<polygon fill="none" stroke="#0F73A2" stroke-width="0.5" stroke-linejoin="bevel" stroke-miterlimit="10" points="1338.7,-38.1 
	1268,8.1 1502.1,30.8 "/>
<polygon fill="none" stroke="#0F73A2" stroke-linejoin="bevel" stroke-miterlimit="10" points="1337.7,-38.1 1499.5,-106.8 
	1499.5,28.8 "/>
<polygon fill="none" stroke="#0F73A2" stroke-width="0.5" stroke-linejoin="bevel" stroke-miterlimit="10" points="672.7,-41.2 
	741.9,-40.4 684.5,84.6 "/>
<polygon fill="none" stroke="#0F73A2" stroke-width="0.5" stroke-linejoin="bevel" stroke-miterlimit="10" points="572.3,106.9 
	674.1,223.6 684.5,85.1 "/>
<polygon fill="none" stroke="#0F73A2" stroke-width="0.5" stroke-linejoin="bevel" stroke-miterlimit="10" points="572.3,106.9 
	576.5,-14.3 684.5,85.1 "/>
<polygon fill="none" stroke="#0F73A2" stroke-width="0.5" stroke-linejoin="bevel" stroke-miterlimit="10" points="672.7,-41.2 
	576.5,-14.3 684.5,85.1 "/>
<polygon fill="none" stroke="#0F73A2" stroke-width="0.5" stroke-linejoin="bevel" stroke-miterlimit="10" points="572.3,106.9 
	603.2,216.5 565.4,220.7 "/>
<polygon fill="none" stroke="#0F73A2" stroke-width="0.5" stroke-linejoin="bevel" stroke-miterlimit="10" points="572.3,106.9 
	603.2,216.5 674.1,223.6 "/>
<polygon fill="none" stroke="#0F73A2" stroke-width="0.5" stroke-linejoin="bevel" stroke-miterlimit="10" points="572.3,106.9 
	494.1,153.6 565.4,220.7 "/>
<polygon fill="none" stroke="#0F73A2" stroke-width="0.5" stroke-linejoin="bevel" stroke-miterlimit="10" points="411.2,97.9 
	494.1,153.6 576.5,-14.3 "/>
<polygon fill="none" stroke="#0F73A2" stroke-width="0.5" stroke-linejoin="bevel" stroke-miterlimit="10" points="411.2,97.9 
	368.4,54.5 576.5,-14.3 "/>
<polygon fill="none" stroke="#0F73A2" stroke-width="0.5" stroke-linejoin="bevel" stroke-miterlimit="10" points="390.9,-100.7 
	368.4,54.5 445.3,-10.4 "/>
<polygon fill="none" stroke="#0F73A2" stroke-width="0.5" stroke-linejoin="bevel" stroke-miterlimit="10" points="368.4,54.5 
	576.5,-14.3 445.3,-10.4 "/>
<polygon fill="none" stroke="#0F73A2" stroke-width="0.5" stroke-linejoin="bevel" stroke-miterlimit="10" points="438.7,230.1 
	494.1,153.6 565.4,220.7 "/>
<polygon fill="none" stroke="#0F73A2" stroke-width="0.5" stroke-linejoin="bevel" stroke-miterlimit="10" points="438.7,230.1 
	494.1,153.6 411.2,97.9 "/>
<polygon fill="none" stroke="#0F73A2" stroke-width="0.5" stroke-linejoin="bevel" stroke-miterlimit="10" points="438.7,230.1 
	357,194.9 411.2,97.9 "/>
<polygon fill="none" stroke="#0F73A2" stroke-width="0.5" stroke-linejoin="bevel" stroke-miterlimit="10" points="368.4,54.5 
	357,194.9 411.2,97.9 "/>
<polygon fill="none" stroke="#0F73A2" stroke-width="0.5" stroke-linejoin="bevel" stroke-miterlimit="10" points="200.5,164 
	357,194.9 246.9,274.4 "/>
<polygon fill="none" stroke="#0F73A2" stroke-width="0.5" stroke-linejoin="bevel" stroke-miterlimit="10" points="200.5,164 
	357,194.9 368.4,54.5 "/>
<polygon fill="none" stroke="#0F73A2" stroke-width="0.5" stroke-linejoin="bevel" stroke-miterlimit="10" points="200.5,164 
	294,65.4 368.4,54.5 "/>
<polygon fill="none" stroke="#0F73A2" stroke-width="0.5" stroke-linejoin="bevel" stroke-miterlimit="10" points="312.7,-86.2 
	294,65.4 368.4,54.5 "/>
<polygon fill="none" stroke="#0F73A2" stroke-width="0.5" stroke-linejoin="bevel" stroke-miterlimit="10" points="312.7,-86.2 
	390.9,-100.7 368.4,54.5 "/>
<polygon fill="none" stroke="#0F73A2" stroke-width="0.5" stroke-linejoin="bevel" stroke-miterlimit="10" points="200.5,164 
	294,65.4 221.3,10 "/>
<polygon fill="none" stroke="#0F73A2" stroke-width="0.5" stroke-linejoin="bevel" stroke-miterlimit="10" points="312.7,-86.2 
	294,65.4 221.3,10 "/>
<polygon fill="none" stroke="#0F73A2" stroke-width="0.5" stroke-linejoin="bevel" stroke-miterlimit="10" points="312.7,-86.2 
	148.6,-56.4 221.3,10 "/>
<polygon fill="none" stroke="#0F73A2" stroke-width="0.5" stroke-linejoin="bevel" stroke-miterlimit="10" points="127.2,65.4 
	148.6,-56.4 221.3,10 "/>
<polygon fill="none" stroke="#0F73A2" stroke-width="0.5" stroke-linejoin="bevel" stroke-miterlimit="10" points="127.2,65.4 
	148.6,-56.4 -6.2,30.8 "/>
<polygon fill="none" stroke="#0F73A2" stroke-width="0.5" stroke-linejoin="bevel" stroke-miterlimit="10" points="-6.9,-181 
	148.6,-56.4 -6.2,30.8 "/>
<polygon fill="none" stroke="#0F73A2" stroke-width="0.5" stroke-linejoin="bevel" stroke-miterlimit="10" points="200.5,164 
	127.2,65.4 221.3,10 "/>
<polygon fill="none" stroke="#0F73A2" stroke-width="0.5" stroke-linejoin="bevel" stroke-miterlimit="10" points="200.5,164 
	127.2,65.4 89.7,130.2 "/>
<polygon fill="none" stroke="#0F73A2" stroke-width="0.5" stroke-linejoin="bevel" stroke-miterlimit="10" points="200.5,164 
	114.7,269.4 89.7,130.2 "/>
<polygon fill="none" stroke="#0F73A2" stroke-width="0.5" stroke-linejoin="bevel" stroke-miterlimit="10" points="-6.2,30.8 
	127.2,65.4 89.7,130.2 "/>
<polygon fill="none" stroke="#0F73A2" stroke-linejoin="bevel" stroke-miterlimit="10" points="-5.5,30.8 -5.5,187.2 90.4,130.2 "/>
<polygon fill="none" stroke="#0F73A2" stroke-width="0.5" stroke-linejoin="bevel" stroke-miterlimit="10" points="114.7,269.4 
	-6.2,187.2 89.7,130.2 "/>
<polygon fill="none" stroke="#0F73A2" stroke-linejoin="bevel" stroke-miterlimit="10" points="115.4,269.4 -5.5,187.2 -5.5,255.5 
	"/>
<polygon fill="none" stroke="#0F73A2" stroke-linejoin="bevel" stroke-miterlimit="10" points="115.4,269.4 -5.5,363 -5.5,255.5 "/>
<polygon fill="none" stroke="#0F73A2" stroke-width="0.5" stroke-linejoin="bevel" stroke-miterlimit="10" points="114.7,269.4 
	-6.2,363 157.6,321.5 "/>
<polygon fill="none" stroke="#0F73A2" stroke-width="0.5" stroke-linejoin="bevel" stroke-miterlimit="10" points="114.7,269.4 
	246.9,274.4 157.6,321.5 "/>
<polygon fill="none" stroke="#0F73A2" stroke-width="0.5" stroke-linejoin="bevel" stroke-miterlimit="10" points="438.7,230.1 
	357,194.9 410.3,308.7 "/>
<polygon fill="none" stroke="#0F73A2" stroke-width="0.5" stroke-linejoin="bevel" stroke-miterlimit="10" points="246.9,274.4 
	357,194.9 410.3,308.7 "/>
<polygon fill="none" stroke="#0F73A2" stroke-width="0.5" stroke-linejoin="bevel" stroke-miterlimit="10" points="638.8,258.7 
	602.8,216.5 674.1,223.6 "/>
<polygon fill="none" stroke="#0F73A2" stroke-width="0.5" stroke-linejoin="bevel" stroke-miterlimit="10" points="638.8,258.7 
	602.8,216.5 565.4,220.7 "/>
<polygon fill="none" stroke="#0F73A2" stroke-width="0.5" stroke-linejoin="bevel" stroke-miterlimit="10" points="638.8,258.7 
	506.5,274.4 565.4,220.7 "/>
<polygon fill="none" stroke="#0F73A2" stroke-width="0.5" stroke-linejoin="bevel" stroke-miterlimit="10" points="438.7,230.1 
	506.5,274.4 565.4,220.7 "/>
<polygon fill="none" stroke="#0F73A2" stroke-width="0.5" stroke-linejoin="bevel" stroke-miterlimit="10" points="438.7,230.1 
	506.5,274.4 410.3,308.7 "/>
<polyline fill="none" stroke="#0F73A2" stroke-width="0.5" stroke-linejoin="bevel" stroke-miterlimit="10" points="506.2,274.4 
	638.4,258.7 640,499 "/>
<polygon fill="none" stroke="#0F73A2" stroke-width="0.5" stroke-linejoin="bevel" stroke-miterlimit="10" points="1070.7,97.9 
	1056.9,220.7 1166.3,175.7 "/>
<path fill="none" stroke="#0F73A2" stroke-width="0.5" stroke-linejoin="bevel" stroke-miterlimit="10" d="M926.1,435.7"/>
<polygon fill="none" stroke="#0F73A2" stroke-width="0.5" stroke-linejoin="bevel" stroke-miterlimit="10" points="957.2,331.2 
	1056.9,220.7 950.6,276.9 "/>
<polygon fill="none" stroke="#0F73A2" stroke-width="0.5" stroke-linejoin="bevel" stroke-miterlimit="10" points="1070.7,97.9 
	1056.9,220.7 953.7,144.3 "/>
<polygon fill="none" stroke="#0F73A2" stroke-width="0.5" stroke-linejoin="bevel" stroke-miterlimit="10" points="846.4,251.8 
	950.6,276.9 1056.9,220.7 "/>
<polygon fill="none" stroke="#0F73A2" stroke-width="0.5" stroke-linejoin="bevel" stroke-miterlimit="10" points="846.4,328.5 
	956.6,330.9 846.9,251.7 "/>
<polygon fill="none" stroke="#0F73A2" stroke-width="0.5" stroke-linejoin="bevel" stroke-miterlimit="10" points="953.7,144.3 
	846.4,251.8 1056.9,220.7 "/>
<polygon fill="none" stroke="#0F73A2" stroke-width="0.5" stroke-linejoin="bevel" stroke-miterlimit="10" points="830.5,125.6 
	846.4,251.8 953.7,144.3 "/>
<line fill="none" stroke="#0F73A2" stroke-width="0.5" stroke-linejoin="bevel" stroke-miterlimit="10" x1="824.3" y1="525.3" x2="779.3" y2="436"/>
<path fill="none" stroke="#0F73A2" stroke-width="0.5" stroke-linejoin="bevel" stroke-miterlimit="10" d="M926.1,436"/>
<polygon fill="none" stroke="#0F73A2" stroke-width="0.5" stroke-linejoin="bevel" stroke-miterlimit="10" points="659.5,666.6 
	694.8,571 824.3,525 "/>
<polygon fill="none" stroke="#0F73A2" stroke-width="0.5" stroke-linejoin="bevel" stroke-miterlimit="10" points="779.3,435.7 
	709.3,396.3 640.4,499 "/>
<polygon fill="none" stroke="#0F73A2" stroke-width="0.5" stroke-linejoin="bevel" stroke-miterlimit="10" points="779.3,435.7 
	694.8,571 640.3,499 "/>
<polygon fill="none" stroke="#0F73A2" stroke-width="0.5" stroke-linejoin="bevel" stroke-miterlimit="10" points="640.4,499 
	694.8,571 554,558.9 "/>
<polygon fill="none" stroke="#0F73A2" stroke-width="0.5" stroke-linejoin="bevel" stroke-miterlimit="10" points="659.5,666.6 
	694.8,571 554,558.9 "/>
<polygon fill="none" stroke="#0F73A2" stroke-width="0.5" stroke-linejoin="bevel" stroke-miterlimit="10" points="640.4,499 
	480.2,364.5 554,558.9 "/>
<polygon fill="none" stroke="#0F73A2" stroke-width="0.5" stroke-linejoin="bevel" stroke-miterlimit="10" points="640.4,499 
	480.2,364.5 506.5,274.4 "/>
<polygon fill="none" stroke="#0F73A2" stroke-width="0.5" stroke-linejoin="bevel" stroke-miterlimit="10" points="410.3,308.7 
	480.2,364.5 506.5,274.4 "/>
<polygon fill="none" stroke="#0F73A2" stroke-width="0.5" stroke-linejoin="bevel" stroke-miterlimit="10" points="410.3,308.7 
	334.2,329.8 246.9,274.4 "/>
<polygon fill="none" stroke="#0F73A2" stroke-width="0.5" stroke-linejoin="bevel" stroke-miterlimit="10" points="269.1,353.3 
	334.2,329.8 246.9,274.4 "/>
<polygon fill="none" stroke="#0F73A2" stroke-width="0.5" stroke-linejoin="bevel" stroke-miterlimit="10" points="269.1,353.3 
	157.6,321.5 246.9,274.4 "/>
<polygon fill="none" stroke="#0F73A2" stroke-width="0.5" stroke-linejoin="bevel" stroke-miterlimit="10" points="269.1,353.3 
	157.6,321.5 200.5,401.1 "/>
<polygon fill="none" stroke="#0F73A2" stroke-width="0.5" stroke-linejoin="bevel" stroke-miterlimit="10" points="-6.2,363 
	157.6,321.5 200.5,401.1 "/>
<polygon fill="none" stroke="#0F73A2" stroke-width="0.5" stroke-linejoin="bevel" stroke-miterlimit="10" points="-6.2,363 
	131.3,525 200.5,401.1 "/>
<polygon fill="none" stroke="#0F73A2" stroke-linejoin="bevel" stroke-miterlimit="10" points="-5.5,363 132,525 -5.5,469.1 "/>
<polygon fill="none" stroke="#0F73A2" stroke-linejoin="bevel" stroke-miterlimit="10" points="-5.5,567.5 132,525 -5.5,469.1 "/>
<polygon fill="none" stroke="#0F73A2" stroke-linejoin="bevel" stroke-miterlimit="10" points="-5.5,567.5 132,525 -5.5,688.3 "/>
<polygon fill="none" stroke="#0F73A2" stroke-width="0.5" stroke-linejoin="bevel" stroke-miterlimit="10" points="130.3,755.9 
	131.3,525 -6.2,688.3 "/>
<polygon fill="none" stroke="#0F73A2" stroke-width="0.5" stroke-linejoin="bevel" stroke-miterlimit="10" points="130.3,755.9 
	131.3,525 189.5,679.7 "/>
<polygon fill="none" stroke="#0F73A2" stroke-width="0.5" stroke-linejoin="bevel" stroke-miterlimit="10" points="269.1,353.3 
	290.5,383.8 200.5,401.1 "/>
<polygon fill="none" stroke="#0F73A2" stroke-width="0.5" stroke-linejoin="bevel" stroke-miterlimit="10" points="410.3,308.7 
	334.2,329.8 423.8,477.6 "/>
<polygon fill="none" stroke="#0F73A2" stroke-width="0.5" stroke-linejoin="bevel" stroke-miterlimit="10" points="290.5,383.8 
	334.2,329.8 423.8,477.6 "/>
<polygon fill="none" stroke="#0F73A2" stroke-width="0.5" stroke-linejoin="bevel" stroke-miterlimit="10" points="290.5,383.8 
	200.5,401.1 423.8,477.6 "/>
<polygon fill="none" stroke="#0F73A2" stroke-width="0.5" stroke-linejoin="bevel" stroke-miterlimit="10" points="312.7,530.4 
	200.5,401.1 423.8,477.6 "/>
<polygon fill="none" stroke="#0F73A2" stroke-width="0.5" stroke-linejoin="bevel" stroke-miterlimit="10" points="312.7,530.4 
	371.5,555.3 423.8,477.6 "/>
<polygon fill="none" stroke="#0F73A2" stroke-width="0.5" stroke-linejoin="bevel" stroke-miterlimit="10" points="312.7,530.4 
	371.5,555.3 321.3,639.3 "/>
<polygon fill="none" stroke="#0F73A2" stroke-width="0.5" stroke-linejoin="bevel" stroke-miterlimit="10" points="312.7,530.4 
	237.9,615 321.3,639.3 "/>
<polygon fill="none" stroke="#0F73A2" stroke-width="0.5" stroke-linejoin="bevel" stroke-miterlimit="10" points="312.7,688.3 
	237.9,615 321.3,639.3 "/>
<polygon fill="none" stroke="#0F73A2" stroke-width="0.5" stroke-linejoin="bevel" stroke-miterlimit="10" points="312.7,688.3 
	237.9,615 190.2,678.8 "/>
<polygon fill="none" stroke="#0F73A2" stroke-width="0.5" stroke-linejoin="bevel" stroke-miterlimit="10" points="312.7,688.3 
	130.3,755.9 190.2,678.8 "/>
<polygon fill="none" stroke="#0F73A2" stroke-width="0.5" stroke-linejoin="bevel" stroke-miterlimit="10" points="312.7,688.3 
	130.3,755.9 274,838.2 "/>
<polygon fill="none" stroke="#0F73A2" stroke-width="0.5" stroke-linejoin="bevel" stroke-miterlimit="10" points="312.7,688.3 
	404.1,764.5 274,838.2 "/>
<polygon fill="none" stroke="#0F73A2" stroke-width="0.5" stroke-linejoin="bevel" stroke-miterlimit="10" points="513.5,822 
	404.1,764.4 555.7,705.7 "/>
<polygon fill="none" stroke="#0F73A2" stroke-width="0.5" stroke-linejoin="bevel" stroke-miterlimit="10" points="513.5,822 
	684.5,790.5 555.7,705.7 "/>
<polygon fill="none" stroke="#0F73A2" stroke-width="0.5" stroke-linejoin="bevel" stroke-miterlimit="10" points="1231,840.3 
	1236.2,688.3 1502.1,736.8 "/>
<polygon fill="none" stroke="#0F73A2" stroke-width="0.5" stroke-linejoin="bevel" stroke-miterlimit="10" points="1231,840.3 
	1236.2,688.3 1108.8,737.1 "/>
<polygon fill="none" stroke="#0F73A2" stroke-width="0.5" stroke-linejoin="bevel" stroke-miterlimit="10" points="-6.9,688.3 
	130.3,755.9 -6.2,920.2 "/>
<polygon fill="none" stroke="#0F73A2" stroke-width="0.5" stroke-linejoin="bevel" stroke-miterlimit="10" points="131.3,525 
	237.9,615 189.5,679.7 "/>
<polygon fill="none" stroke="#0F73A2" stroke-width="0.5" stroke-linejoin="bevel" stroke-miterlimit="10" points="131.3,525 
	237.9,615 200.5,401.1 "/>
<polygon fill="none" stroke="#0F73A2" stroke-width="0.5" stroke-linejoin="bevel" stroke-miterlimit="10" points="312.7,530.4 
	237.9,615 200.5,401.1 "/>
<polygon fill="none" stroke="#0F73A2" stroke-width="0.5" stroke-linejoin="bevel" stroke-miterlimit="10" points="445.3,587.3 
	371.5,555.3 423.8,477.6 "/>
<polygon fill="none" stroke="#0F73A2" stroke-width="0.5" stroke-linejoin="bevel" stroke-miterlimit="10" points="445.3,587.3 
	371.5,555.3 321.3,639.3 "/>
<polygon fill="none" stroke="#0F73A2" stroke-width="0.5" stroke-linejoin="bevel" stroke-miterlimit="10" points="445.3,587.3 
	513.5,632.3 423.8,477.6 "/>
<polygon fill="none" stroke="#0F73A2" stroke-width="0.5" stroke-linejoin="bevel" stroke-miterlimit="10" points="290.5,383.8 
	334.2,329.8 269.1,353.3 "/>
<polygon fill="none" stroke="#0F73A2" stroke-width="0.5" stroke-linejoin="bevel" stroke-miterlimit="10" points="410.3,308.7 
	480.2,364.5 423.8,477.6 "/>
<polygon fill="none" stroke="#0F73A2" stroke-width="0.5" stroke-linejoin="bevel" stroke-miterlimit="10" points="554,558.9 
	480.2,364.5 423.8,477.6 "/>
<polygon fill="none" stroke="#0F73A2" stroke-width="0.5" stroke-linejoin="bevel" stroke-miterlimit="10" points="554,558.9 
	513.5,632.3 423.8,477.6 "/>
<polygon fill="none" stroke="#0F73A2" stroke-width="0.5" stroke-linejoin="bevel" stroke-miterlimit="10" points="674.1,223.6 
	638.8,258.7 709.3,396.3 "/>
<polygon fill="none" stroke="#0F73A2" stroke-width="0.5" stroke-linejoin="bevel" stroke-miterlimit="10" points="674.1,223.6 
	709.3,396.3 846.4,328.5 "/>
<line fill="none" stroke="#0F73A2" stroke-width="0.5" stroke-linejoin="bevel" stroke-miterlimit="10" x1="779.3" y1="435.7" x2="926.1" y2="436"/>
<path fill="none" stroke="#0F73A2" stroke-width="0.5" stroke-linejoin="bevel" stroke-miterlimit="10" d="M846.4,328.5"/>
</svg>
