<?xml version="1.0" encoding="utf-8"?>
<!-- Generator: Adobe Illustrator 17.1.0, SVG Export Plug-In . SVG Version: 6.00 Build 0)  -->
<!DOCTYPE svg PUBLIC "-//W3C//DTD SVG 1.1//EN" "http://www.w3.org/Graphics/SVG/1.1/DTD/svg11.dtd">
<svg version="1.1" id="Warstwa_1" xmlns="http://www.w3.org/2000/svg" xmlns:xlink="http://www.w3.org/1999/xlink" x="0px" y="0px"
	 viewBox="0 0 1485 715.4" enable-background="new 0 0 1485 715.4" xml:space="preserve">
<g>
	<polygon fill="none" stroke="#0F73A2" stroke-width="0.5" stroke-miterlimit="10" points="836.5,130.6 852.4,256.8 680.1,228.6 	
		"/>
	<polygon fill="none" stroke="#0F73A2" stroke-miterlimit="10" points="853.5,256.8 680.9,228.6 853.5,333.5 	"/>
	<polygon fill="none" stroke="#0F73A2" stroke-miterlimit="10" points="964.3,336.2 853.5,256.8 853.5,333.5 	"/>
	<polygon fill="none" stroke="#0F73A2" stroke-width="0.5" stroke-miterlimit="10" points="206.5,169 120.7,274.4 252.9,279.4 	"/>
	<polygon fill="none" stroke="#0F73A2" stroke-width="0.5" stroke-miterlimit="10" points="578.3,111.9 500.1,158.6 582.5,-9.3 	"/>
	<polygon fill="none" stroke="#0F73A2" stroke-width="0.5" stroke-miterlimit="10" points="959.3,539.4 1086.4,606.1 1062.9,521.8 	
		"/>
	<polygon fill="none" stroke="#0F73A2" stroke-width="0.5" stroke-miterlimit="10" points="608.8,221.5 644.8,263.7 680.1,228.6 	
		"/>
	<polygon fill="none" stroke="#0F73A2" stroke-width="0.5" stroke-miterlimit="10" points="785.3,440.7 715.3,401.3 852.4,333.5 	
		"/>
	<polygon fill="none" stroke="#0F73A2" stroke-miterlimit="10" points="785.3,441 932.1,441 852.4,333.7 	"/>
	<polygon fill="none" stroke="#0F73A2" stroke-width="0.5" stroke-miterlimit="10" points="963.2,336.2 932.1,440.7 852.4,333.5 	
		"/>
	<polygon fill="none" stroke="#0F73A2" stroke-width="0.5" stroke-miterlimit="10" points="963.2,336.2 932.1,440.7 1081.6,295.3 	
		"/>
	<polygon fill="none" stroke="#0F73A2" stroke-width="0.5" stroke-miterlimit="10" points="1052.5,428.9 932.1,440.7 1081.6,295.3 	
		"/>
	<polygon fill="none" stroke="#0F73A2" stroke-width="0.5" stroke-miterlimit="10" points="1052.5,428.9 932.1,440.7 1014.1,479.5 	
		"/>
	<polygon fill="none" stroke="#0F73A2" stroke-width="0.5" stroke-miterlimit="10" points="959.3,539.4 932.1,440.7 1014.1,479.5 	
		"/>
	<polygon fill="none" stroke="#0F73A2" stroke-width="0.5" stroke-miterlimit="10" points="1052.5,428.9 1126.6,510.9 1014.1,479.5 
			"/>
	<polygon fill="none" stroke="#0F73A2" stroke-width="0.5" stroke-miterlimit="10" points="959.3,539.4 1126.6,510.9 1014.1,479.5 	
		"/>
	<polygon fill="none" stroke="#0F73A2" stroke-width="0.5" stroke-miterlimit="10" points="959.3,539.4 1086.4,606.1 886.3,607.2 	
		"/>
	<polygon fill="none" stroke="#0F73A2" stroke-width="0.5" stroke-miterlimit="10" points="788,745.4 1086.4,606.1 886.3,607.2 	"/>
	<polygon fill="none" stroke="#0F73A2" stroke-width="0.5" stroke-miterlimit="10" points="788,745.4 1086.4,606.1 1033.1,741.8 	
		"/>
	<polygon fill="none" stroke="#0F73A2" stroke-width="0.5" stroke-miterlimit="10" points="1114.8,742.1 1086.4,606.1 1033.1,741.8 
			"/>
	<polygon fill="none" stroke="#0F73A2" stroke-width="0.5" stroke-miterlimit="10" points="1114.8,742.1 1086.4,606.1 1242.2,693.3 
			"/>
	<polygon fill="none" stroke="#0F73A2" stroke-width="0.5" stroke-miterlimit="10" points="1220,592.3 1086.4,606.1 1242.2,693.3 	
		"/>
	<polygon fill="none" stroke="#0F73A2" stroke-width="0.5" stroke-miterlimit="10" points="1220,592.3 1293.4,581.2 1242.2,693.3 	
		"/>
	<polygon fill="none" stroke="#0F73A2" stroke-width="0.5" stroke-miterlimit="10" points="1488.1,741.8 1293.4,581.2 1242.2,693.3 
			"/>
	<polygon fill="none" stroke="#0F73A2" stroke-width="0.5" stroke-miterlimit="10" points="1126.6,510.9 1086.4,606.1 1062.9,521.8 
			"/>
	<polygon fill="none" stroke="#0F73A2" stroke-width="0.5" stroke-miterlimit="10" points="1052.5,428.9 1126.6,510.9 1150.8,377.7 
			"/>
	<polygon fill="none" stroke="#0F73A2" stroke-width="0.5" stroke-miterlimit="10" points="1210.4,437.2 1126.6,510.9 1150.8,377.7 
			"/>
	<polygon fill="none" stroke="#0F73A2" stroke-width="0.5" stroke-miterlimit="10" points="1210.4,437.2 1282.3,279.4 1150.8,377.7 
			"/>
	<polygon fill="none" stroke="#0F73A2" stroke-width="0.5" stroke-miterlimit="10" points="1210.4,437.2 1282.3,279.4 1293.4,371.1 
			"/>
	<polygon fill="none" stroke="#0F73A2" stroke-width="0.5" stroke-miterlimit="10" points="1210.4,437.2 1290,491.2 1293.4,371.1 	
		"/>
	<polygon fill="none" stroke="#0F73A2" stroke-width="0.5" stroke-miterlimit="10" points="1362.7,397.8 1290,491.2 1293.4,371.1 	
		"/>
	<polygon fill="none" stroke="#0F73A2" stroke-miterlimit="10" points="1362.5,273.2 1362.5,397.8 1293.3,371.1 	"/>
	<polygon fill="none" stroke="#0F73A2" stroke-width="0.5" stroke-miterlimit="10" points="1210.4,437.2 1290,491.2 1126.6,510.9 	
		"/>
	<polygon fill="none" stroke="#0F73A2" stroke-width="0.5" stroke-miterlimit="10" points="1086.4,606.1 1290,491.2 1126.6,510.9 	
		"/>
	<polygon fill="none" stroke="#0F73A2" stroke-width="0.5" stroke-miterlimit="10" points="1220,592.3 1290,491.2 1293.4,581.2 	"/>
	<polygon fill="none" stroke="#0F73A2" stroke-width="0.5" stroke-miterlimit="10" points="1488.1,496.8 1290,491.2 1293.4,581.2 	
		"/>
	<polygon fill="none" stroke="#0F73A2" stroke-miterlimit="10" points="1485.5,498 1485.5,558.5 1292.4,581.2 	"/>
	<polygon fill="none" stroke="#0F73A2" stroke-miterlimit="10" points="1485.5,739.4 1485.5,558.5 1292.4,581.2 	"/>
	<polygon fill="none" stroke="#0F73A2" stroke-width="0.5" stroke-miterlimit="10" points="1488.1,496.8 1290,491.2 1376.5,437.2 	
		"/>
	<polygon fill="none" stroke="#0F73A2" stroke-miterlimit="10" points="1485.5,495.6 1485.5,431.6 1375.5,437.2 	"/>
	<polygon fill="none" stroke="#0F73A2" stroke-width="0.5" stroke-miterlimit="10" points="1362.7,397.8 1290,491.2 1376.5,437.2 	
		"/>
	<polygon fill="none" stroke="#0F73A2" stroke-width="0.5" stroke-miterlimit="10" points="1362.7,397.8 1488.1,431.2 1376.5,437.2 
			"/>
	<polygon fill="none" stroke="#0F73A2" stroke-miterlimit="10" points="1362.5,397.8 1487.9,431.2 1362.5,273.2 	"/>
	<polygon fill="none" stroke="#0F73A2" stroke-miterlimit="10" points="1485.5,188.3 1485.5,428.9 1361.8,273.2 	"/>
	<polygon fill="none" stroke="#0F73A2" stroke-width="0.5" stroke-miterlimit="10" points="1086.4,606.1 1290,491.2 1220,592.3 	"/>
	<polygon fill="none" stroke="#0F73A2" stroke-width="0.5" stroke-miterlimit="10" points="1362.7,273.2 1282.3,279.4 1293.4,371.1 
			"/>
	<polygon fill="none" stroke="#0F73A2" stroke-width="0.5" stroke-miterlimit="10" points="1362.7,273.2 1282.3,279.4 1345.1,152.8 
			"/>
	<polygon fill="none" stroke="#0F73A2" stroke-width="0.5" stroke-miterlimit="10" points="1362.7,273.2 1488.1,184.6 1345.1,152.8 
			"/>
	<polygon fill="none" stroke="#0F73A2" stroke-width="0.5" stroke-miterlimit="10" points="1486.5,37.1 1485.8,183.1 1345.1,152.8 	
		"/>
	<polygon fill="none" stroke="#0F73A2" stroke-width="0.5" stroke-miterlimit="10" points="1157.7,249.6 1282.3,279.4 1150.8,377.7 
			"/>
	<polygon fill="none" stroke="#0F73A2" stroke-width="0.5" stroke-miterlimit="10" points="1052.5,428.9 1081.6,295.3 1150.8,377.7 
			"/>
	<polygon fill="none" stroke="#0F73A2" stroke-width="0.5" stroke-miterlimit="10" points="1157.7,249.6 1081.6,295.3 1150.8,377.7 
			"/>
	<polygon fill="none" stroke="#0F73A2" stroke-width="0.5" stroke-miterlimit="10" points="886.3,607.2 932.1,440.7 830.3,530 	"/>
	<polygon fill="none" stroke="#0F73A2" stroke-width="0.5" stroke-miterlimit="10" points="886.3,607.2 665.5,671.6 830.3,530 	"/>
	<polygon fill="none" stroke="#0F73A2" stroke-width="0.5" stroke-miterlimit="10" points="886.3,607.2 665.5,671.6 788,745.4 	"/>
	<polygon fill="none" stroke="#0F73A2" stroke-width="0.5" stroke-miterlimit="10" points="690.5,795.5 665.5,671.6 788,745.4 	"/>
	<polygon fill="none" stroke="#0F73A2" stroke-width="0.5" stroke-miterlimit="10" points="690.5,795.5 665.5,671.6 561.7,710.7 	
		"/>
	<polygon fill="none" stroke="#0F73A2" stroke-width="0.5" stroke-miterlimit="10" points="519.5,637.3 665.5,671.6 561.7,710.7 	
		"/>
	<polygon fill="none" stroke="#0F73A2" stroke-width="0.5" stroke-miterlimit="10" points="519.5,637.3 465.5,669.5 561.7,710.7 	
		"/>
	<polygon fill="none" stroke="#0F73A2" stroke-width="0.5" stroke-miterlimit="10" points="519.5,637.3 465.5,669.5 451.3,592.3 	
		"/>
	<polygon fill="none" stroke="#0F73A2" stroke-width="0.5" stroke-miterlimit="10" points="561.7,710.7 465.5,669.5 410.1,769.5 	
		"/>
	<polygon fill="none" stroke="#0F73A2" stroke-width="0.5" stroke-miterlimit="10" points="327.3,644.3 465.5,669.5 451.3,592.3 	
		"/>
	<polygon fill="none" stroke="#0F73A2" stroke-width="0.5" stroke-miterlimit="10" points="327.3,644.3 465.5,669.5 410.1,769.5 	
		"/>
	<polygon fill="none" stroke="#0F73A2" stroke-width="0.5" stroke-miterlimit="10" points="327.3,644.3 318.7,693.3 410.1,769.5 	
		"/>
	<polygon fill="none" stroke="#0F73A2" stroke-width="0.5" stroke-miterlimit="10" points="519.5,637.3 665.5,671.6 560,563.9 	"/>
	<polygon fill="none" stroke="#0F73A2" stroke-width="0.5" stroke-miterlimit="10" points="963.2,336.2 1062.9,225.7 1081.6,295.3 	
		"/>
	<polygon fill="none" stroke="#0F73A2" stroke-width="0.5" stroke-miterlimit="10" points="1157.7,249.6 1062.9,225.7 1081.6,295.3 
			"/>
	<polygon fill="none" stroke="#0F73A2" stroke-width="0.5" stroke-miterlimit="10" points="1157.7,249.6 1062.9,225.7 1172.3,180.7 
			"/>
	<polygon fill="none" stroke="#0F73A2" stroke-width="0.5" stroke-miterlimit="10" points="1157.7,249.6 1282.3,279.4 1172.3,180.7 
			"/>
	<polygon fill="none" stroke="#0F73A2" stroke-width="0.5" stroke-miterlimit="10" points="1345.1,152.8 1282.3,279.4 1172.3,180.7 
			"/>
	<polygon fill="none" stroke="#0F73A2" stroke-width="0.5" stroke-miterlimit="10" points="1345.1,152.8 1305.6,102.9 1172.3,180.7 
			"/>
	<polygon fill="none" stroke="#0F73A2" stroke-width="0.5" stroke-miterlimit="10" points="1345.1,152.8 1305.6,102.9 1488.1,35.8 	
		"/>
	<polygon fill="none" stroke="#0F73A2" stroke-width="0.5" stroke-miterlimit="10" points="1274,13.1 1305.6,102.9 1488.1,35.8 	"/>
	<polygon fill="none" stroke="#0F73A2" stroke-width="0.5" stroke-miterlimit="10" points="1274,13.1 1305.6,102.9 1220,84.9 	"/>
	<polygon fill="none" stroke="#0F73A2" stroke-width="0.5" stroke-miterlimit="10" points="1274,13.1 1220.6,15 1220,84.9 	"/>
	<polygon fill="none" stroke="#0F73A2" stroke-width="0.5" stroke-miterlimit="10" points="1220,84.9 1305.6,102.9 1172.3,180.7 	
		"/>
	<polygon fill="none" stroke="#0F73A2" stroke-width="0.5" stroke-miterlimit="10" points="1220,84.9 1076.7,102.9 1172.3,180.7 	
		"/>
	<polygon fill="none" stroke="#0F73A2" stroke-width="0.5" stroke-miterlimit="10" points="1220,84.9 1076.7,102.9 1220.6,15 	"/>
	<polygon fill="none" stroke="#0F73A2" stroke-width="0.5" stroke-miterlimit="10" points="1101.7,-61.1 1076.7,102.9 1220.6,15 	
		"/>
	<polygon fill="none" stroke="#0F73A2" stroke-width="0.5" stroke-miterlimit="10" points="1101.7,-61.1 1076.7,102.9 1042.9,70.4 	
		"/>
	<polygon fill="none" stroke="#0F73A2" stroke-width="0.5" stroke-miterlimit="10" points="959.7,149.3 1076.7,102.9 1042.9,70.4 	
		"/>
	<polygon fill="none" stroke="#0F73A2" stroke-width="0.5" stroke-miterlimit="10" points="959.7,149.3 929.3,1.2 1042.9,70.4 	"/>
	<polygon fill="none" stroke="#0F73A2" stroke-width="0.5" stroke-miterlimit="10" points="959.7,149.3 929.3,1.2 836.5,130.6 	"/>
	<polygon fill="none" stroke="#0F73A2" stroke-width="0.5" stroke-miterlimit="10" points="831.6,-12.7 929.3,1.2 836.5,130.6 	"/>
	<polygon fill="none" stroke="#0F73A2" stroke-width="0.5" stroke-miterlimit="10" points="765.6,90.1 831.6,-12.7 836.5,130.6 	"/>
	<polygon fill="none" stroke="#0F73A2" stroke-width="0.5" stroke-miterlimit="10" points="765.6,90.1 680.1,228.6 836.5,130.6 	"/>
	<polygon fill="none" stroke="#0F73A2" stroke-width="0.5" stroke-miterlimit="10" points="765.6,91 680.1,228.6 690.5,89.6 	"/>
	<polygon fill="none" stroke="#0F73A2" stroke-width="0.5" stroke-miterlimit="10" points="765.6,91 747.9,-35.4 690.5,89.6 	"/>
	<polygon fill="none" stroke="#0F73A2" stroke-width="0.5" stroke-miterlimit="10" points="765.6,90.5 747.9,-35.4 831.6,-12.7 	"/>
	<polygon fill="none" stroke="#0F73A2" stroke-width="0.5" stroke-miterlimit="10" points="818.5,-131.7 929.3,1.2 831.6,-12.7 	"/>
	<polygon fill="none" stroke="#0F73A2" stroke-width="0.5" stroke-miterlimit="10" points="818.5,-131.7 929.3,1.2 1076.7,-219 	"/>
	<polygon fill="none" stroke="#0F73A2" stroke-width="0.5" stroke-miterlimit="10" points="1021,-22.4 929.3,1.2 1076.7,-219 	"/>
	<polygon fill="none" stroke="#0F73A2" stroke-width="0.5" stroke-miterlimit="10" points="1021,-22.4 929.3,1.2 1042.9,70.4 	"/>
	<polygon fill="none" stroke="#0F73A2" stroke-width="0.5" stroke-miterlimit="10" points="1021,-22.4 1101.7,-61.1 1042.9,70.4 	
		"/>
	<polygon fill="none" stroke="#0F73A2" stroke-width="0.5" stroke-miterlimit="10" points="1220.6,15 1101.7,-61.1 1256.7,-120.7 	
		"/>
	<polygon fill="none" stroke="#0F73A2" stroke-width="0.5" stroke-miterlimit="10" points="1220.6,15 1274,13.1 1256.7,-120.7 	"/>
	<polygon fill="none" stroke="#0F73A2" stroke-width="0.5" stroke-miterlimit="10" points="1344.7,-33.1 1274,13.1 1256.7,-120.7 	
		"/>
	<polygon fill="none" stroke="#0F73A2" stroke-width="0.5" stroke-miterlimit="10" points="1344.7,-33.1 1274,13.1 1488.1,35.8 	"/>
	<polygon fill="none" stroke="#0F73A2" stroke-miterlimit="10" points="1343.7,-33.1 1485.5,-101.8 1485.5,33.8 	"/>
	<path fill="none" stroke="#0F73A2" stroke-width="0.5" stroke-miterlimit="10" d="M929.3,1.2"/>
	<polygon fill="none" stroke="#0F73A2" stroke-width="0.5" stroke-miterlimit="10" points="678.7,-36.2 747.9,-35.4 690.5,89.6 	"/>
	<polygon fill="none" stroke="#0F73A2" stroke-width="0.5" stroke-miterlimit="10" points="578.3,111.9 680.1,228.6 690.5,90.1 	"/>
	<polygon fill="none" stroke="#0F73A2" stroke-width="0.5" stroke-miterlimit="10" points="578.3,111.9 582.5,-9.3 690.5,90.1 	"/>
	<polygon fill="none" stroke="#0F73A2" stroke-width="0.5" stroke-miterlimit="10" points="678.7,-36.2 582.5,-9.3 690.5,90.1 	"/>
	<polygon fill="none" stroke="#0F73A2" stroke-width="0.5" stroke-miterlimit="10" points="578.3,111.9 609.2,221.5 571.4,225.7 	
		"/>
	<polygon fill="none" stroke="#0F73A2" stroke-width="0.5" stroke-miterlimit="10" points="578.3,111.9 609.2,221.5 680.1,228.6 	
		"/>
	<polygon fill="none" stroke="#0F73A2" stroke-width="0.5" stroke-miterlimit="10" points="578.3,111.9 500.1,158.6 571.4,225.7 	
		"/>
	<polygon fill="none" stroke="#0F73A2" stroke-width="0.5" stroke-miterlimit="10" points="417.2,102.9 500.1,158.6 582.5,-9.3 	"/>
	<polygon fill="none" stroke="#0F73A2" stroke-width="0.5" stroke-miterlimit="10" points="417.2,102.9 374.4,59.5 582.5,-9.3 	"/>
	<polygon fill="none" stroke="#0F73A2" stroke-width="0.5" stroke-miterlimit="10" points="396.9,-95.7 374.4,59.5 451.3,-5.4 	"/>
	<polygon fill="none" stroke="#0F73A2" stroke-width="0.5" stroke-miterlimit="10" points="374.4,59.5 582.5,-9.3 451.3,-5.4 	"/>
	<polygon fill="none" stroke="#0F73A2" stroke-width="0.5" stroke-miterlimit="10" points="444.7,235.1 500.1,158.6 571.4,225.7 	
		"/>
	<polygon fill="none" stroke="#0F73A2" stroke-width="0.5" stroke-miterlimit="10" points="444.7,235.1 500.1,158.6 417.2,102.9 	
		"/>
	<polygon fill="none" stroke="#0F73A2" stroke-width="0.5" stroke-miterlimit="10" points="444.7,235.1 363,199.9 417.2,102.9 	"/>
	<polygon fill="none" stroke="#0F73A2" stroke-width="0.5" stroke-miterlimit="10" points="374.4,59.5 363,199.9 417.2,102.9 	"/>
	<polygon fill="none" stroke="#0F73A2" stroke-width="0.5" stroke-miterlimit="10" points="206.5,169 363,199.9 252.9,279.4 	"/>
	<polygon fill="none" stroke="#0F73A2" stroke-width="0.5" stroke-miterlimit="10" points="206.5,169 363,199.9 374.4,59.5 	"/>
	<polygon fill="none" stroke="#0F73A2" stroke-width="0.5" stroke-miterlimit="10" points="206.5,169 300,70.4 374.4,59.5 	"/>
	<polygon fill="none" stroke="#0F73A2" stroke-width="0.5" stroke-miterlimit="10" points="318.7,-81.2 300,70.4 374.4,59.5 	"/>
	<polygon fill="none" stroke="#0F73A2" stroke-width="0.5" stroke-miterlimit="10" points="318.7,-81.2 396.9,-95.7 374.4,59.5 	"/>
	<polygon fill="none" stroke="#0F73A2" stroke-width="0.5" stroke-miterlimit="10" points="206.5,169 300,70.4 227.3,15 	"/>
	<polygon fill="none" stroke="#0F73A2" stroke-width="0.5" stroke-miterlimit="10" points="318.7,-81.2 300,70.4 227.3,15 	"/>
	<polygon fill="none" stroke="#0F73A2" stroke-width="0.5" stroke-miterlimit="10" points="318.7,-81.2 154.6,-51.4 227.3,15 	"/>
	<polygon fill="none" stroke="#0F73A2" stroke-width="0.5" stroke-miterlimit="10" points="133.2,70.4 154.6,-51.4 227.3,15 	"/>
	<polygon fill="none" stroke="#0F73A2" stroke-width="0.5" stroke-miterlimit="10" points="133.2,70.4 154.6,-51.4 -0.2,35.8 	"/>
	<polygon fill="none" stroke="#0F73A2" stroke-width="0.5" stroke-miterlimit="10" points="-0.9,-176 154.6,-51.4 -0.2,35.8 	"/>
	<polygon fill="none" stroke="#0F73A2" stroke-width="0.5" stroke-miterlimit="10" points="206.5,169 133.2,70.4 227.3,15 	"/>
	<polygon fill="none" stroke="#0F73A2" stroke-width="0.5" stroke-miterlimit="10" points="206.5,169 133.2,70.4 95.7,135.2 	"/>
	<polygon fill="none" stroke="#0F73A2" stroke-width="0.5" stroke-miterlimit="10" points="206.5,169 120.7,274.4 95.7,135.2 	"/>
	<polygon fill="none" stroke="#0F73A2" stroke-width="0.5" stroke-miterlimit="10" points="-0.2,35.8 133.2,70.4 95.7,135.2 	"/>
	<polygon fill="none" stroke="#0F73A2" stroke-miterlimit="10" points="0.5,35.8 0.5,192.2 96.4,135.2 	"/>
	<polygon fill="none" stroke="#0F73A2" stroke-width="0.5" stroke-miterlimit="10" points="120.7,274.4 -0.2,192.2 95.7,135.2 	"/>
	<polygon fill="none" stroke="#0F73A2" stroke-miterlimit="10" points="121.4,274.4 0.5,192.2 0.5,260.5 	"/>
	<polygon fill="none" stroke="#0F73A2" stroke-miterlimit="10" points="121.4,274.4 0.5,368 0.5,260.5 	"/>
	<polygon fill="none" stroke="#0F73A2" stroke-width="0.5" stroke-miterlimit="10" points="120.7,274.4 -0.2,368 163.6,326.5 	"/>
	<polygon fill="none" stroke="#0F73A2" stroke-width="0.5" stroke-miterlimit="10" points="120.7,274.4 252.9,279.4 163.6,326.5 	
		"/>
	<polygon fill="none" stroke="#0F73A2" stroke-width="0.5" stroke-miterlimit="10" points="444.7,235.1 363,199.9 416.3,313.7 	"/>
	<polygon fill="none" stroke="#0F73A2" stroke-width="0.5" stroke-miterlimit="10" points="252.9,279.4 363,199.9 416.3,313.7 	"/>
	<polygon fill="none" stroke="#0F73A2" stroke-width="0.5" stroke-miterlimit="10" points="644.8,263.7 608.8,221.5 680.1,228.6 	
		"/>
	<polygon fill="none" stroke="#0F73A2" stroke-width="0.5" stroke-miterlimit="10" points="644.8,263.7 608.8,221.5 571.4,225.7 	
		"/>
	<polygon fill="none" stroke="#0F73A2" stroke-width="0.5" stroke-miterlimit="10" points="644.8,263.7 512.5,279.4 571.4,225.7 	
		"/>
	<polygon fill="none" stroke="#0F73A2" stroke-width="0.5" stroke-miterlimit="10" points="444.7,235.1 512.5,279.4 571.4,225.7 	
		"/>
	<polygon fill="none" stroke="#0F73A2" stroke-width="0.5" stroke-miterlimit="10" points="444.7,235.1 512.5,279.4 416.3,313.7 	
		"/>
	<polygon fill="none" stroke="#0F73A2" stroke-width="0.5" stroke-miterlimit="10" points="644.4,263.7 646,504 512.2,279.4 	"/>
	<polygon fill="none" stroke="#0F73A2" stroke-width="0.5" stroke-miterlimit="10" points="1076.7,102.9 1062.9,225.7 1172.3,180.7 
			"/>
	<path fill="none" stroke="#0F73A2" stroke-width="0.5" stroke-miterlimit="10" d="M932.1,440.7"/>
	<polygon fill="none" stroke="#0F73A2" stroke-width="0.5" stroke-miterlimit="10" points="963.2,336.2 852.4,256.8 956.6,281.9 	
		"/>
	<polygon fill="none" stroke="#0F73A2" stroke-width="0.5" stroke-miterlimit="10" points="963.2,336.2 1062.9,225.7 956.6,281.9 	
		"/>
	<polygon fill="none" stroke="#0F73A2" stroke-width="0.5" stroke-miterlimit="10" points="1076.7,102.9 1062.9,225.7 959.7,149.3 	
		"/>
	<polygon fill="none" stroke="#0F73A2" stroke-width="0.5" stroke-miterlimit="10" points="852.4,256.8 956.6,281.9 1062.9,225.7 	
		"/>
	<polygon fill="none" stroke="#0F73A2" stroke-width="0.5" stroke-miterlimit="10" points="959.7,149.3 852.4,256.8 1062.9,225.7 	
		"/>
	<polygon fill="none" stroke="#0F73A2" stroke-width="0.5" stroke-miterlimit="10" points="836.5,130.6 852.4,256.8 959.7,149.3 	
		"/>
	<polygon fill="none" stroke="#0F73A2" stroke-miterlimit="10" points="785.3,441 932.1,441 830.3,530.3 	"/>
	<polygon fill="none" stroke="#0F73A2" stroke-width="0.5" stroke-miterlimit="10" points="785.3,440.7 700.8,576 830.3,530 	"/>
	<polygon fill="none" stroke="#0F73A2" stroke-width="0.5" stroke-miterlimit="10" points="665.5,671.6 700.8,576 830.3,530 	"/>
	<polygon fill="none" stroke="#0F73A2" stroke-width="0.5" stroke-miterlimit="10" points="785.3,440.7 715.3,401.3 646.4,504 	"/>
	<polygon fill="none" stroke="#0F73A2" stroke-width="0.5" stroke-miterlimit="10" points="785.3,440.7 700.8,576 646.3,504 	"/>
	<polygon fill="none" stroke="#0F73A2" stroke-width="0.5" stroke-miterlimit="10" points="646.4,504 700.8,576 560,563.9 	"/>
	<polygon fill="none" stroke="#0F73A2" stroke-width="0.5" stroke-miterlimit="10" points="665.5,671.6 700.8,576 560,563.9 	"/>
	<polygon fill="none" stroke="#0F73A2" stroke-width="0.5" stroke-miterlimit="10" points="646.4,504 486.2,369.5 560,563.9 	"/>
	<polygon fill="none" stroke="#0F73A2" stroke-width="0.5" stroke-miterlimit="10" points="646.4,504 486.2,369.5 512.5,279.4 	"/>
	<polygon fill="none" stroke="#0F73A2" stroke-width="0.5" stroke-miterlimit="10" points="416.3,313.7 486.2,369.5 512.5,279.4 	
		"/>
	<polygon fill="none" stroke="#0F73A2" stroke-width="0.5" stroke-miterlimit="10" points="416.3,313.7 340.2,334.8 252.9,279.4 	
		"/>
	<polygon fill="none" stroke="#0F73A2" stroke-width="0.5" stroke-miterlimit="10" points="275.1,358.3 340.2,334.8 252.9,279.4 	
		"/>
	<polygon fill="none" stroke="#0F73A2" stroke-width="0.5" stroke-miterlimit="10" points="275.1,358.3 163.6,326.5 252.9,279.4 	
		"/>
	<polygon fill="none" stroke="#0F73A2" stroke-width="0.5" stroke-miterlimit="10" points="275.1,358.3 163.6,326.5 206.5,406.1 	
		"/>
	<polygon fill="none" stroke="#0F73A2" stroke-width="0.5" stroke-miterlimit="10" points="-0.2,368 163.6,326.5 206.5,406.1 	"/>
	<polygon fill="none" stroke="#0F73A2" stroke-width="0.5" stroke-miterlimit="10" points="-0.2,368 137.3,530 206.5,406.1 	"/>
	<polygon fill="none" stroke="#0F73A2" stroke-miterlimit="10" points="0.5,368 138,530 0.5,474.1 	"/>
	<polygon fill="none" stroke="#0F73A2" stroke-miterlimit="10" points="0.5,572.5 138,530 0.5,474.1 	"/>
	<polygon fill="none" stroke="#0F73A2" stroke-miterlimit="10" points="0.5,572.5 138,530 0.5,693.3 	"/>
	<polygon fill="none" stroke="#0F73A2" stroke-width="0.5" stroke-miterlimit="10" points="136.3,760.9 137.3,530 -0.2,693.3 	"/>
	<polygon fill="none" stroke="#0F73A2" stroke-width="0.5" stroke-miterlimit="10" points="136.3,760.9 137.3,530 195.5,684.7 	"/>
	<polygon fill="none" stroke="#0F73A2" stroke-width="0.5" stroke-miterlimit="10" points="275.1,358.3 296.5,388.8 206.5,406.1 	
		"/>
	<polygon fill="none" stroke="#0F73A2" stroke-width="0.5" stroke-miterlimit="10" points="416.3,313.7 340.2,334.8 429.8,482.6 	
		"/>
	<polygon fill="none" stroke="#0F73A2" stroke-width="0.5" stroke-miterlimit="10" points="296.5,388.8 340.2,334.8 429.8,482.6 	
		"/>
	<polygon fill="none" stroke="#0F73A2" stroke-width="0.5" stroke-miterlimit="10" points="296.5,388.8 206.5,406.1 429.8,482.6 	
		"/>
	<polygon fill="none" stroke="#0F73A2" stroke-width="0.5" stroke-miterlimit="10" points="318.7,535.4 206.5,406.1 429.8,482.6 	
		"/>
	<polygon fill="none" stroke="#0F73A2" stroke-width="0.5" stroke-miterlimit="10" points="318.7,535.4 377.5,560.3 429.8,482.6 	
		"/>
	<polygon fill="none" stroke="#0F73A2" stroke-width="0.5" stroke-miterlimit="10" points="318.7,535.4 377.5,560.3 327.3,644.3 	
		"/>
	<polygon fill="none" stroke="#0F73A2" stroke-width="0.5" stroke-miterlimit="10" points="318.7,535.4 243.9,620 327.3,644.3 	"/>
	<polygon fill="none" stroke="#0F73A2" stroke-width="0.5" stroke-miterlimit="10" points="318.7,693.3 243.9,620 327.3,644.3 	"/>
	<polygon fill="none" stroke="#0F73A2" stroke-width="0.5" stroke-miterlimit="10" points="318.7,693.3 243.9,620 196.2,683.8 	"/>
	<polygon fill="none" stroke="#0F73A2" stroke-width="0.5" stroke-miterlimit="10" points="318.7,693.3 136.3,760.9 196.2,683.8 	
		"/>
	<polygon fill="none" stroke="#0F73A2" stroke-width="0.5" stroke-miterlimit="10" points="318.7,693.3 136.3,760.9 280,843.2 	"/>
	<polygon fill="none" stroke="#0F73A2" stroke-width="0.5" stroke-miterlimit="10" points="318.7,693.3 410.1,769.5 280,843.2 	"/>
	<polygon fill="none" stroke="#0F73A2" stroke-width="0.5" stroke-miterlimit="10" points="519.5,827 410.1,769.4 561.7,710.7 	"/>
	<polygon fill="none" stroke="#0F73A2" stroke-width="0.5" stroke-miterlimit="10" points="519.5,827 690.5,795.5 561.7,710.7 	"/>
	<polygon fill="none" stroke="#0F73A2" stroke-width="0.5" stroke-miterlimit="10" points="1237,845.3 1242.2,693.3 1488.1,741.8 	
		"/>
	<polygon fill="none" stroke="#0F73A2" stroke-width="0.5" stroke-miterlimit="10" points="1237,845.3 1242.2,693.3 1114.8,742.1 	
		"/>
	<polygon fill="none" stroke="#0F73A2" stroke-width="0.5" stroke-miterlimit="10" points="-0.9,693.3 136.3,760.9 -0.2,925.2 	"/>
	<polygon fill="none" stroke="#0F73A2" stroke-width="0.5" stroke-miterlimit="10" points="137.3,530 243.9,620 195.5,684.7 	"/>
	<polygon fill="none" stroke="#0F73A2" stroke-width="0.5" stroke-miterlimit="10" points="137.3,530 243.9,620 206.5,406.1 	"/>
	<polygon fill="none" stroke="#0F73A2" stroke-width="0.5" stroke-miterlimit="10" points="318.7,535.4 243.9,620 206.5,406.1 	"/>
	<polygon fill="none" stroke="#0F73A2" stroke-width="0.5" stroke-miterlimit="10" points="451.3,592.3 377.5,560.3 429.8,482.6 	
		"/>
	<polygon fill="none" stroke="#0F73A2" stroke-width="0.5" stroke-miterlimit="10" points="451.3,592.3 377.5,560.3 327.3,644.3 	
		"/>
	<polygon fill="none" stroke="#0F73A2" stroke-width="0.5" stroke-miterlimit="10" points="451.3,592.3 519.5,637.3 429.8,482.6 	
		"/>
	<polygon fill="none" stroke="#0F73A2" stroke-width="0.5" stroke-miterlimit="10" points="296.5,388.8 340.2,334.8 275.1,358.3 	
		"/>
	<polygon fill="none" stroke="#0F73A2" stroke-width="0.5" stroke-miterlimit="10" points="416.3,313.7 486.2,369.5 429.8,482.6 	
		"/>
	<polygon fill="none" stroke="#0F73A2" stroke-width="0.5" stroke-miterlimit="10" points="560,563.9 486.2,369.5 429.8,482.6 	"/>
	<polygon fill="none" stroke="#0F73A2" stroke-width="0.5" stroke-miterlimit="10" points="560,563.9 519.5,637.3 429.8,482.6 	"/>
	<polygon fill="none" stroke="#0F73A2" stroke-width="0.5" stroke-miterlimit="10" points="680.1,228.6 644.8,263.7 715.3,401.3 	
		"/>
	<polygon fill="none" stroke="#0F73A2" stroke-width="0.5" stroke-miterlimit="10" points="644.4,263.7 646,504 714.9,401.3 	"/>
	<polygon fill="none" stroke="#0F73A2" stroke-width="0.5" stroke-miterlimit="10" points="680.1,228.6 715.3,401.3 852.4,333.5 	
		"/>
</g>
</svg>
